<?xml version="1.0" encoding="UTF-8"?>
<svg version="1.1" xmlns="http://www.w3.org/2000/svg" width="263" height="68">
<path d="M0 0 C1.96453125 0.00193359 1.96453125 0.00193359 3.96875 0.00390625 C7.7092573 0.4631942 8.90584736 0.80705086 11.5 3.4375 C12.35244453 7.71961953 12.10223656 12.08050324 12.0625 16.4375 C12.08634766 17.63890625 12.11019531 18.8403125 12.13476562 20.078125 C12.13283203 21.22796875 12.13089844 22.3778125 12.12890625 23.5625 C12.12963135 24.61695312 12.13035645 25.67140625 12.13110352 26.7578125 C11.5 29.4375 11.5 29.4375 9.19628906 31.28637695 C5.66378751 32.79450307 2.45198682 32.76549281 -1.3125 32.625 C-2.35180664 32.60469727 -2.35180664 32.60469727 -3.41210938 32.58398438 C-5.10841265 32.54888845 -6.80431136 32.49508943 -8.5 32.4375 C-8.5 30.1275 -8.5 27.8175 -8.5 25.4375 C-4.21 25.4375 0.08 25.4375 4.5 25.4375 C4.5 24.7775 4.5 24.1175 4.5 23.4375 C3.14455078 23.48970703 3.14455078 23.48970703 1.76171875 23.54296875 C0.58222656 23.57003906 -0.59726563 23.59710938 -1.8125 23.625 C-2.98425781 23.65980469 -4.15601563 23.69460937 -5.36328125 23.73046875 C-8.5 23.4375 -8.5 23.4375 -10.390625 22.421875 C-12.15795549 19.26059369 -11.97220772 16.02441155 -11.9375 12.5 C-11.9674707 11.42588867 -11.9674707 11.42588867 -11.99804688 10.33007812 C-11.99496438 7.00406165 -11.72544216 4.79572138 -9.94140625 1.9609375 C-6.53486176 -0.16474626 -3.98906281 -0.05889364 0 0 Z M-4.5 7.4375 C-4.5 10.4075 -4.5 13.3775 -4.5 16.4375 C-1.53 16.4375 1.44 16.4375 4.5 16.4375 C4.5 13.4675 4.5 10.4975 4.5 7.4375 C1.53 7.4375 -1.44 7.4375 -4.5 7.4375 Z " fill="#FFFFFF" transform="translate(206.5,25.5625)"/>
<path d="M0 0 C1.30066406 -0.00128906 2.60132813 -0.00257812 3.94140625 -0.00390625 C7.4375 0.5625 7.4375 0.5625 9.87109375 2.12890625 C12.05521916 5.52219835 11.96906364 8.05391775 11.9375 12.0625 C11.9478125 13.3721875 11.958125 14.681875 11.96875 16.03125 C11.4375 19.5625 11.4375 19.5625 9.90625 21.99609375 C6.48230427 24.16856565 3.36713388 24.18551067 -0.5625 24.125 C-1.62984375 24.16077148 -1.62984375 24.16077148 -2.71875 24.19726562 C-6.39095447 24.18698893 -8.22249933 23.85616143 -11.02734375 21.43359375 C-12.82673751 18.06831534 -13.129444 15.86656531 -13.125 12.0625 C-13.14691406 10.9590625 -13.16882813 9.855625 -13.19140625 8.71875 C-11.7107677 1.2879677 -6.95261975 -0.11737293 0 0 Z M-5.5625 7.5625 C-5.5625 10.5325 -5.5625 13.5025 -5.5625 16.5625 C-2.2625 16.5625 1.0375 16.5625 4.4375 16.5625 C4.4375 13.5925 4.4375 10.6225 4.4375 7.5625 C1.1375 7.5625 -2.1625 7.5625 -5.5625 7.5625 Z " fill="#FFFFFF" transform="translate(181.5625,25.4375)"/>
<path d="M0 0 C1.96453125 0.00193359 1.96453125 0.00193359 3.96875 0.00390625 C7.5 0.4375 7.5 0.4375 9.94140625 1.43359375 C12.42711541 4.62950552 12.03763736 8.0676754 11.9375 11.9375 C11.94458984 12.70964844 11.95167969 13.48179688 11.95898438 14.27734375 C11.89547885 19.91467993 11.89547885 19.91467993 10.20117188 22.15454102 C7.33352934 24.31720771 4.0084946 23.90893549 0.5625 23.875 C-0.51161133 23.9049707 -0.51161133 23.9049707 -1.60742188 23.93554688 C-4.93231125 23.93246542 -7.13995023 23.66445081 -9.97265625 21.87890625 C-12.10058381 18.47748751 -12.03139907 15.92518168 -12 11.9375 C-12.01546875 9.97296875 -12.01546875 9.97296875 -12.03125 7.96875 C-11.5 4.4375 -11.5 4.4375 -9.9375 1.99609375 C-6.53606764 -0.1788606 -4.00910673 -0.05918957 0 0 Z M-4.5 7.4375 C-4.5 10.4075 -4.5 13.3775 -4.5 16.4375 C-1.53 16.4375 1.44 16.4375 4.5 16.4375 C4.5 13.4675 4.5 10.4975 4.5 7.4375 C1.53 7.4375 -1.44 7.4375 -4.5 7.4375 Z " fill="#FFFFFF" transform="translate(142.5,25.5625)"/>
<path d="M0 0 C4.5478125 -0.1546875 4.5478125 -0.1546875 9.1875 -0.3125 C10.13391357 -0.35802002 11.08032715 -0.40354004 12.05541992 -0.45043945 C16.24362156 -0.51934628 18.47166548 -0.33087617 22.09375 1.9375 C24.72629837 6.16684 24.56237112 9.4419353 24.3125 14.3125 C24.28994141 15.14845703 24.26738281 15.98441406 24.24414062 16.84570312 C24.1855061 18.89791149 24.09583215 20.94919202 24 23 C21.36 23 18.72 23 16 23 C16 18.05 16 13.1 16 8 C13.03 7.67 10.06 7.34 7 7 C7 12.28 7 17.56 7 23 C4.69 23 2.38 23 0 23 C0 15.41 0 7.82 0 0 Z " fill="#FFFFFF" transform="translate(79,26)"/>
<path d="M0 0 C3.0525 -0.061875 6.105 -0.12375 9.25 -0.1875 C10.68327637 -0.22846802 10.68327637 -0.22846802 12.14550781 -0.27026367 C12.90702148 -0.27775635 13.66853516 -0.28524902 14.453125 -0.29296875 C15.61569824 -0.31653442 15.61569824 -0.31653442 16.80175781 -0.34057617 C19.65923947 0.10213672 20.97934213 0.94078861 23 3 C23.45410156 5.17651367 23.45410156 5.17651367 23.390625 7.66796875 C23.37128906 9.00698242 23.37128906 9.00698242 23.3515625 10.37304688 C23.31804687 11.30181641 23.28453125 12.23058594 23.25 13.1875 C23.23195312 14.12787109 23.21390625 15.06824219 23.1953125 16.03710938 C23.1481655 18.35909889 23.08238231 20.6790369 23 23 C20.69 23 18.38 23 16 23 C16 17.72 16 12.44 16 7 C13.03 7 10.06 7 7 7 C7 12.28 7 17.56 7 23 C4.69 23 2.38 23 0 23 C0 15.41 0 7.82 0 0 Z " fill="#FFFFFF" transform="translate(105,26)"/>
<path d="M0 0 C1.33224609 0.03383789 1.33224609 0.03383789 2.69140625 0.06835938 C4.87932812 0.12717448 7.06379671 0.20928732 9.25 0.3125 C9.25 2.6225 9.25 4.9325 9.25 7.3125 C3.97 7.3125 -1.31 7.3125 -6.75 7.3125 C-6.75 10.2825 -6.75 13.2525 -6.75 16.3125 C-1.47 16.3125 3.81 16.3125 9.25 16.3125 C9.25 18.6225 9.25 20.9325 9.25 23.3125 C6.14591193 23.37057043 3.0419636 23.40611914 -0.0625 23.4375 C-1.38411133 23.46263672 -1.38411133 23.46263672 -2.73242188 23.48828125 C-3.57998047 23.49472656 -4.42753906 23.50117187 -5.30078125 23.5078125 C-6.08106689 23.51828613 -6.86135254 23.52875977 -7.6652832 23.53955078 C-9.75 23.3125 -9.75 23.3125 -12.75 21.3125 C-13.84697531 18.02157406 -13.9871983 15.40137841 -14.0625 11.9375 C-14.09988281 10.81601562 -14.13726562 9.69453125 -14.17578125 8.5390625 C-12.99876119 -0.38037392 -7.58216282 -0.36398861 0 0 Z " fill="#FFFFFF" transform="translate(242.75,25.6875)"/>
<path d="M0 0 C3.75800954 1.57678722 6.28470857 3.92009994 9.1875 6.75 C10.06792969 7.59046875 10.94835937 8.4309375 11.85546875 9.296875 C14.30282989 12.38170908 14.98959014 14.075483 15 18 C13.28383293 21.2788112 10.89963836 23.7144027 8 26 C4.5625 26.5 4.5625 26.5 2 26 C2 25.34 2 24.68 2 24 C1.1028125 23.566875 1.1028125 23.566875 0.1875 23.125 C-2 22 -2 22 -5 20 C-6.65 21.98 -8.3 23.96 -10 26 C-12.5 24.1875 -12.5 24.1875 -15 22 C-15 19 -15 19 -13.49609375 17.140625 C-7.95050803 12.0475254 -7.95050803 12.0475254 -3.25 11.8125 C0.16179132 13.05911606 1.64849998 14.30012961 4 17 C4.66 17 5.32 17 6 17 C4.2431893 12.93347371 1.63709461 10.66797922 -1.63671875 7.78125 C-3 6 -3 6 -2.83203125 3.90625 C-2 2 -2 2 0 0 Z " fill="#F04B38" transform="translate(40,36)"/>
<path d="M0 0 C4.16965789 1.17838158 5.39640607 3.31330857 7.875 6.8125 C11.39881687 4.26645403 11.39881687 4.26645403 13.875 0.8125 C16.49687494 1.86124998 17.66871361 2.46181313 19.125 4.9375 C19.3725 5.55625 19.62 6.175 19.875 6.8125 C18.5 8.3125 18.5 8.3125 16.875 9.8125 C16.215 9.8125 15.555 9.8125 14.875 9.8125 C14.875 10.4725 14.875 11.1325 14.875 11.8125 C12.33068491 13.77525736 10.68861674 14.8125 7.4375 14.8125 C3.8975228 13.43104548 1.68687638 11.36280648 -1.125 8.8125 C-1.45328283 11.93512518 -1.45328283 11.93512518 0.84375 14.07421875 C1.6790625 14.87472656 2.514375 15.67523438 3.375 16.5 C4.2103125 17.30824219 5.045625 18.11648437 5.90625 18.94921875 C6.5559375 19.56410156 7.205625 20.17898437 7.875 20.8125 C7.125 22.75 7.125 22.75 5.875 24.8125 C3.98535156 25.58618164 3.98535156 25.58618164 1.875 25.8125 C-0.45119935 24.02566553 -2.34858133 22.33216943 -4.375 20.25 C-4.92929687 19.72341797 -5.48359375 19.19683594 -6.0546875 18.65429688 C-8.73566357 15.95681233 -10.00861561 14.47556316 -10.6796875 10.65234375 C-9.58794054 5.06290683 -5.4104701 1.40672223 0 0 Z " fill="#F04A38" transform="translate(28.125,9.1875)"/>
<path d="M0 0 C1.12588014 0.95729916 2.2506715 1.91587895 3.375 2.875 C4.00148438 3.40867187 4.62796875 3.94234375 5.2734375 4.4921875 C8.94371152 7.69744943 8.94371152 7.69744943 9.5 10.6875 C8.79525666 15.3564246 6.25280305 17.72783503 3 21 C6.99776619 21.43471268 6.99776619 21.43471268 9.2890625 19.03125 C10.44535156 17.77828125 10.44535156 17.77828125 11.625 16.5 C13.04891081 14.96728538 14.50056274 13.45891193 16 12 C18 12 18 12 19.625 13.5 C20.07875 13.995 20.5325 14.49 21 15 C19.37695158 18.93096698 16.71897255 21.78803804 13.8125 24.8125 C13.35552734 25.32748047 12.89855469 25.84246094 12.42773438 26.37304688 C11.01953125 27.83203125 11.01953125 27.83203125 8 30 C4.40183058 29.99229514 2.09430769 29.65744122 -0.99609375 27.80078125 C-3.53938036 25.17478613 -4.8637393 23.55639785 -5.75 19.9375 C-4.6709866 15.71136418 -2.41949533 14.63586099 1 12 C1 11.01 1 10.02 1 9 C0.38125 8.690625 -0.2375 8.38125 -0.875 8.0625 C-2.25 7.375 -3.625 6.6875 -5 6 C-5 5.34 -5 4.68 -5 4 C-3.37373596 2.61767557 -1.7074998 1.28062485 0 0 Z " fill="#F04A38" transform="translate(15,24)"/>
<path d="M0 0 C3.93472019 1.34138188 6.36131947 3.55550677 8.75 6.9375 C9.5 9.9375 9.5 9.9375 8.75 12.9375 C6.91807504 15.24319865 4.98518837 16.98171018 2.75 18.9375 C3.183125 19.34742187 3.61625 19.75734375 4.0625 20.1796875 C4.619375 20.71851562 5.17625 21.25734375 5.75 21.8125 C6.306875 22.34617187 6.86375 22.87984375 7.4375 23.4296875 C8.75 24.9375 8.75 24.9375 8.75 26.9375 C6.75 28.5625 6.75 28.5625 4.75 29.9375 C2.8125 29.125 2.8125 29.125 0.75 27.9375 C0.42 26.9475 0.09 25.9575 -0.25 24.9375 C-0.91 24.669375 -1.57 24.40125 -2.25 24.125 C-4.25 22.9375 -4.25 22.9375 -5.4375 20.3125 C-5.14842795 15.10920312 -1.84722307 12.47192865 1.75 8.9375 C-2.25353944 8.49065797 -2.25353944 8.49065797 -4.46875 10.94140625 C-5.99087733 12.64858673 -7.51170934 14.356923 -9.03125 16.06640625 C-9.7634375 16.68386719 -10.495625 17.30132812 -11.25 17.9375 C-13.53125 17.71484375 -13.53125 17.71484375 -15.25 16.9375 C-15.90356445 15.1237793 -15.90356445 15.1237793 -16.25 12.9375 C-14.37369892 10.66147819 -12.57560929 8.74830056 -10.4375 6.75 C-9.87740234 6.20408203 -9.31730469 5.65816406 -8.74023438 5.09570312 C-3.35834463 -0.09328735 -3.35834463 -0.09328735 0 0 Z " fill="#F04A38" transform="translate(53.25,17.0625)"/>
<path d="M0 0 C2.31 0 4.62 0 7 0 C7 7.59 7 15.18 7 23 C8.32 23 9.64 23 11 23 C11 25.31 11 27.62 11 30 C4.65899825 30.48776937 4.65899825 30.48776937 1.79003906 28.36425781 C-0.49794964 25.34231528 -0.46434772 23.68173369 -0.390625 19.921875 C-0.37773437 18.76171875 -0.36484375 17.6015625 -0.3515625 16.40625 C-0.31804687 15.1996875 -0.28453125 13.993125 -0.25 12.75 C-0.22292969 10.91695312 -0.22292969 10.91695312 -0.1953125 9.046875 C-0.148181 6.03045922 -0.08239413 3.01562509 0 0 Z " fill="#FFFFFF" transform="translate(157,19)"/>
<path d="M0 0 C2.31 0 4.62 0 7 0 C7 9.9 7 19.8 7 30 C4.69 30 2.38 30 0 30 C0 20.1 0 10.2 0 0 Z " fill="#FFFFFF" transform="translate(221,19)"/>
<path d="M0 0 C2.31 0 4.62 0 7 0 C7 9.24 7 18.48 7 28 C4.69 28 2.38 28 0 28 C0 18.76 0 9.52 0 0 Z " fill="#FFFFFF" transform="translate(71,21)"/>
<path d="M0 0 C2.62187494 1.04874998 3.79371361 1.64931313 5.25 4.125 C5.4975 4.74375 5.745 5.3625 6 6 C4.75 7.5625 4.75 7.5625 3 9 C0.9375 8.9375 0.9375 8.9375 -1 8 C-2.25 5.9375 -2.25 5.9375 -3 4 C-2.01 2.68 -1.02 1.36 0 0 Z " fill="#FEFCFC" transform="translate(42,10)"/>
<path d="M0 0 C2.62187494 1.04874998 3.79371361 1.64931313 5.25 4.125 C5.4975 4.74375 5.745 5.3625 6 6 C4.35 7.32 2.7 8.64 1 10 C-1 8.1875 -1 8.1875 -3 6 C-3 3 -3 3 -1.5 1.3125 C-0.7575 0.6628125 -0.7575 0.6628125 0 0 Z " fill="#FEFBFB" transform="translate(28,52)"/>
<path d="M0 0 C1.65 1.65 3.3 3.3 5 5 C3.68 6.32 2.36 7.64 1 9 C-1 8 -3 7 -5 6 C-5 5.34 -5 4.68 -5 4 C-3.37373596 2.61767557 -1.7074998 1.28062485 0 0 Z " fill="#FEFEFE" transform="translate(15,24)"/>
<path d="M0 0 C1.7074998 1.28062485 3.37373596 2.61767557 5 4 C5 4.66 5 5.32 5 6 C3 7.625 3 7.625 1 9 C-0.32 8.34 -1.64 7.68 -3 7 C-3 3 -3 3 -1.5 1.25 C-1.005 0.8375 -0.51 0.425 0 0 Z " fill="#FFFEFE" transform="translate(57,38)"/>
</svg>
