<?xml version="1.0" encoding="UTF-8"?>
<svg version="1.1" xmlns="http://www.w3.org/2000/svg" width="1339" height="302">
<path d="M0 0 C12.54 0 25.08 0 38 0 C41.58641842 7.77057325 45.09992 15.4510734 48.29296875 23.37109375 C48.67712952 24.31620819 49.06129028 25.26132263 49.45709229 26.2350769 C50.27808887 28.25553128 51.09777458 30.27651875 51.91622925 32.29800415 C54.10946439 37.7143583 56.3130446 43.12650346 58.515625 48.5390625 C58.96687241 49.6485878 59.41811981 50.7581131 59.88304138 51.90126038 C64.69381771 63.721828 69.56050117 75.519131 74.4375 87.3125 C74.83568939 88.27582245 75.23387878 89.2391449 75.64413452 90.23165894 C76.41532066 92.09721992 77.18671182 93.96269617 77.95832825 95.82807922 C78.67823608 97.56865936 79.39764693 99.30944515 80.11650085 101.05046082 C81.60661021 104.65539884 83.10333836 108.25641162 84.64111328 111.84130859 C85.10114746 112.91848145 85.56118164 113.9956543 86.03515625 115.10546875 C86.42195557 115.9977417 86.80875488 116.89001465 87.20727539 117.80932617 C88 120 88 120 88 123 C88.66 123 89.32 123 90 123 C90.1400647 122.03296143 90.1400647 122.03296143 90.28295898 121.04638672 C91.25320484 116.92424582 92.85020823 113.1621372 94.47265625 109.2578125 C94.82720383 108.39444275 95.1817514 107.531073 95.54704285 106.64154053 C96.71467624 103.80095067 97.88858461 100.9629988 99.0625 98.125 C99.88096928 96.13706073 100.69899764 94.14893987 101.51660156 92.16064453 C103.19330351 88.08471325 104.87232346 84.00974897 106.55322266 79.93554688 C108.79656964 74.49642325 111.03136682 69.05383857 113.26171875 63.609375 C113.59655273 62.79202881 113.93138672 61.97468262 114.27636719 61.13256836 C114.60717285 60.32505127 114.93797852 59.51753418 115.27880859 58.68554688 C117.5499562 53.14154262 119.82631552 47.59968266 122.1027832 42.05786133 C124.09168333 37.21507955 126.07686686 32.37079165 128.05960083 27.52548218 C129.37178656 24.31994746 130.68598525 21.11524054 132.00061035 17.91070557 C132.62071831 16.39784413 133.23995345 14.8846246 133.85827637 13.37103271 C134.70400767 11.30109462 135.55279316 9.23243538 136.40234375 7.1640625 C136.88179443 5.99311035 137.36124512 4.8221582 137.85522461 3.61572266 C139 1 139 1 140 0 C142.73894085 -0.08858646 145.4525327 -0.11523479 148.19140625 -0.09765625 C149.01124496 -0.0962413 149.83108368 -0.09482635 150.67576599 -0.09336853 C153.30471382 -0.08775289 155.93357773 -0.07519779 158.5625 -0.0625 C160.34049357 -0.05748701 162.11848846 -0.05292376 163.89648438 -0.04882812 C168.26435545 -0.03777839 172.63216348 -0.02050331 177 0 C179.56338354 9.95810606 182.12568992 19.91648906 184.6875 29.875 C184.88405056 30.63901249 185.08060112 31.40302498 185.28310776 32.19018936 C190.43159742 52.20338418 195.57122788 72.21882298 200.6953125 92.23828125 C200.93059725 93.15745331 201.165882 94.07662537 201.40829659 95.02365112 C203.72095506 104.05852933 206.03294425 113.09357807 208.34308338 122.1291008 C209.20509301 125.50024461 210.06749803 128.87128713 210.93010139 132.24227905 C211.34045028 133.84597064 211.75069354 135.44968926 212.16082573 137.05343628 C214.63186739 146.71374103 217.11324772 156.37078195 219.71614075 165.99662781 C221 170.78953254 221 170.78953254 221 173 C210.44 173 199.88 173 189 173 C185.62502836 164.00007561 185.62502836 164.00007561 184.59643555 159.93595886 C184.36105072 159.01530136 184.12566589 158.09464386 183.88314819 157.14608765 C183.63682648 156.16355011 183.39050476 155.18101257 183.13671875 154.16870117 C182.86799957 153.11230942 182.5992804 152.05591766 182.32241821 150.96751404 C181.43986495 147.49372742 180.56369221 144.01836473 179.6875 140.54296875 C179.07163196 138.11441975 178.45533289 135.68598002 177.83862305 133.25764465 C176.38342036 127.52383105 174.93211323 121.78904103 173.4828558 116.05372268 C171.04769811 106.41762713 168.60432912 96.78361237 166.16137695 87.14949036 C164.94966625 82.37090911 163.73999753 77.59181838 162.53198242 72.81230164 C161.97576065 70.61469221 161.41952752 68.41708565 160.86328125 66.21948242 C160.61695953 65.24301758 160.37063782 64.26655273 160.11685181 63.26049805 C158.48506686 56.819475 156.76874899 50.4047412 155 44 C153.36526339 46.45210492 152.43864346 48.23009725 151.45385742 50.93408203 C151.16062592 51.73303894 150.86739441 52.53199585 150.5652771 53.35516357 C150.09017197 54.66822479 150.09017197 54.66822479 149.60546875 56.0078125 C149.09580063 57.40111786 149.09580063 57.40111786 148.57583618 58.8225708 C147.44283655 61.92209519 146.31526897 65.02356902 145.1875 68.125 C144.39263448 70.30176427 143.59729683 72.47835619 142.80151367 74.65478516 C141.53838502 78.10945676 140.2755344 81.56422712 139.01405334 85.01950073 C134.42853022 97.57764336 129.80580715 110.12200082 125.18032837 122.66546631 C123.41685731 127.44797809 121.65430621 132.23082856 119.89198303 137.01376343 C119.07219925 139.23805854 118.25201085 141.46220456 117.43138123 143.68618774 C115.56843803 148.73590357 113.71078872 153.78737945 111.86865234 158.84472656 C111.37917366 160.18490341 111.37917366 160.18490341 110.87980652 161.55215454 C110.27650639 163.20493595 109.6753873 164.85851575 109.07685852 166.51303101 C107.11202477 171.88797523 107.11202477 171.88797523 106 173 C103.3337397 173.08855161 100.69352886 173.11524673 98.02734375 173.09765625 C97.22970108 173.0962413 96.43205841 173.09482635 95.61024475 173.09336853 C93.05262565 173.08775316 90.49509282 173.07519812 87.9375 173.0625 C86.20768355 173.05748698 84.47786574 173.05292373 82.74804688 173.04882812 C78.49866447 173.03777875 74.24934688 173.02050386 70 173 C66.44686719 164.67603324 63.19379428 156.27872406 60.11328125 147.76953125 C59.65377294 146.50678731 59.19399781 145.24414043 58.73397827 143.98158264 C57.76067497 141.30881588 56.789003 138.63546452 55.81869507 135.96160889 C54.29649286 131.76713365 52.7703927 127.57408393 51.2434082 123.38134766 C50.85961581 122.32749752 50.85961581 122.32749752 50.46807003 121.25235748 C49.9495183 119.82848007 49.43095692 118.40460618 48.91238594 116.98073578 C48.13167447 114.83671846 47.35130999 112.69257514 46.57102966 110.54840088 C42.01995216 98.04383069 37.44545619 85.54795911 32.85653687 73.05722046 C32.08096513 70.94604644 31.30575401 68.83473991 30.53091431 66.72329712 C29.46278453 63.81264419 28.3936828 60.9023504 27.32421875 57.9921875 C27.0138266 57.1461647 26.70343445 56.30014191 26.38363647 55.42848206 C24.97385447 51.59670912 23.54520016 47.77990719 22 44 C19.54109292 50.1852976 17.75424015 56.37926725 16.13671875 62.83129883 C15.86799957 63.88769058 15.5992804 64.94408234 15.32241821 66.03248596 C14.43986495 69.50627258 13.56369221 72.98163527 12.6875 76.45703125 C12.07163196 78.88558025 11.45533289 81.31401998 10.83862305 83.74235535 C9.38342036 89.47616895 7.93211323 95.21095897 6.4828558 100.94627732 C4.04769811 110.58237287 1.60432912 120.21638763 -0.83862305 129.85050964 C-2.05033375 134.62909089 -3.26000247 139.40818162 -4.46801758 144.18769836 C-5.02423935 146.38530779 -5.58047248 148.58291435 -6.13671875 150.78051758 C-6.50620132 152.24521484 -6.50620132 152.24521484 -6.88314819 153.73950195 C-8.51562123 160.18324105 -10.25030941 166.58446785 -12 173 C-22.56 173 -33.12 173 -44 173 C-42.87499725 163.99997801 -42.87499725 163.99997801 -41.91096497 160.26327515 C-41.69422623 159.41317368 -41.47748749 158.5630722 -41.25418091 157.68721008 C-41.01795013 156.78157822 -40.78171936 155.87594635 -40.53833008 154.94287109 C-40.28757217 153.9653035 -40.03681427 152.9877359 -39.77845764 151.98054504 C-38.94687037 148.74360661 -38.10823476 145.50853873 -37.26953125 142.2734375 C-36.67631208 139.97053669 -36.08352204 137.66752531 -35.49113464 135.3644104 C-33.9210456 129.26513216 -32.34494795 123.16742187 -30.76763916 117.07000732 C-29.21963801 111.08148145 -27.67748106 105.09145175 -26.13476562 99.1015625 C-23.37348511 88.38430539 -20.60528776 77.66885071 -17.83300972 66.95443344 C-16.05059202 60.06503204 -14.27061741 53.17500631 -12.4936524 46.28419673 C-11.0223725 40.57904306 -9.54885399 34.87446917 -8.07456017 29.17009354 C-7.4525706 26.76194287 -6.83133781 24.35359661 -6.210886 21.94504929 C-5.35581676 18.62639595 -4.49796105 15.30847518 -3.6394043 11.99072266 C-3.38539289 11.00214893 -3.13138149 10.01357521 -2.86967278 8.99504471 C-2.63667536 8.09696468 -2.40367794 7.19888466 -2.16362 6.27359009 C-1.96180964 5.49178186 -1.75999929 4.70997364 -1.55207348 3.90447426 C-1 2 -1 2 0 0 Z " fill="#5B5DE2" transform="translate(1118,26)"/>
<path d="M0 0 C1.13574463 0.2880249 2.27148926 0.5760498 3.44165039 0.87280273 C12.35790765 22.2055115 12.35790765 22.2055115 14.37915039 32.87280273 C14.57532959 33.84209717 14.77150879 34.8113916 14.97363281 35.81005859 C16.28249925 42.48005992 17.31700009 49.06497851 17.44165039 55.87280273 C17.4687207 57.07678711 17.49579102 58.28077148 17.52368164 59.52124023 C17.58370111 64.8138663 17.54743716 69.69031946 16.44165039 74.87280273 C17.73711288 74.85281723 17.73711288 74.85281723 19.05874634 74.83242798 C27.20949475 74.7120587 35.35994344 74.62078149 43.51137733 74.5619297 C47.70190054 74.53065536 51.89168758 74.48825616 56.08178711 74.42016602 C60.12781347 74.35483079 64.17313317 74.31906738 68.21964645 74.30353928 C69.76106259 74.29247799 71.30244131 74.27087667 72.84355545 74.23842239 C86.44362335 73.96348663 86.44362335 73.96348663 90.43530273 77.78442383 C92.44165039 80.87280273 92.44165039 80.87280273 92.44165039 82.87280273 C67.03165039 82.87280273 41.62165039 82.87280273 15.44165039 82.87280273 C15.44165039 84.52280273 15.44165039 86.17280273 15.44165039 87.87280273 C16.49099258 87.86978653 17.54033478 87.86677032 18.62147522 87.86366272 C28.52350173 87.83976084 38.42489295 87.85263482 48.32683659 87.90126896 C53.41731593 87.92509595 58.50714111 87.93608511 63.59765625 87.91748047 C68.51288936 87.89999301 73.42694876 87.91656107 78.34203911 87.95648003 C80.21463435 87.96575517 82.08733151 87.96287736 83.95988655 87.94749641 C100.48838769 87.82494465 100.48838769 87.82494465 105.14648438 92.30419922 C107.44165039 95.2873393 107.44165039 95.2873393 107.44165039 97.87280273 C76.09165039 97.87280273 44.74165039 97.87280273 12.44165039 97.87280273 C12.11165039 99.85280273 11.78165039 101.83280273 11.44165039 103.87280273 C12.72902603 103.85725845 14.01640167 103.84171417 15.3427887 103.82569885 C27.48127254 103.68373283 39.61958773 103.57883257 51.75871372 103.51011753 C57.99948822 103.47360226 64.23959199 103.4240808 70.47998047 103.34472656 C76.50358091 103.26860933 82.52653668 103.22679961 88.55058098 103.20866203 C90.84754523 103.19573845 93.1444746 103.170501 95.44116402 103.13269234 C98.66158099 103.08179062 101.87934244 103.0748827 105.10009766 103.078125 C106.52106247 103.0403746 106.52106247 103.0403746 107.97073364 103.00186157 C113.09322031 103.05757785 115.83494006 103.67700872 119.58799744 107.29747009 C122.44165039 110.47395802 122.44165039 110.47395802 122.44165039 112.87280273 C84.49165039 112.87280273 46.54165039 112.87280273 7.44165039 112.87280273 C7.11165039 114.85280273 6.78165039 116.83280273 6.44165039 118.87280273 C8.14273522 121.23865415 9.66075915 122.96106321 11.74414062 124.93823242 C12.31945526 125.51135666 12.8947699 126.0844809 13.48751831 126.67497253 C15.39262142 128.56500515 17.3210613 130.42925731 19.25024414 132.29467773 C20.57612724 133.60242549 21.9003307 134.9118782 23.22291565 136.22296143 C26.70814471 139.6701251 30.21298271 143.09662167 33.72314453 146.51837158 C39.34358039 152.00435867 44.93295518 157.52200769 50.52397346 163.03794098 C52.48383696 164.96603651 54.4514452 166.88594075 56.42051697 168.80462646 C57.61706057 169.97793814 58.81348347 171.15137293 60.00976562 172.32495117 C60.56303024 172.86002792 61.11629486 173.39510468 61.68632507 173.94639587 C62.97644015 175.21742201 64.21493599 176.5404829 65.44165039 177.87280273 C65.44165039 178.53280273 65.44165039 179.19280273 65.44165039 179.87280273 C55.46438888 180.93456379 55.46438888 180.93456379 51.10576248 178.64666557 C48.91475147 176.82302388 46.96927203 174.89867757 45.0144043 172.82373047 C43.8850647 171.69942879 43.8850647 171.69942879 42.73291016 170.55241394 C40.26501888 168.08127589 37.84241087 165.57034969 35.41821289 163.05639648 C33.70352742 161.32184309 31.98622871 159.58986947 30.26644897 157.86036682 C25.75357249 153.30743424 21.27827865 148.71922034 16.80957031 144.12298584 C12.26610265 139.46396002 7.68579311 134.84146166 3.10961914 130.21459961 C-3.58100451 123.43675893 -10.26059251 116.64840531 -16.9074707 109.82763672 C-17.59640411 109.12344604 -18.28533752 108.41925537 -18.99514771 107.69372559 C-22.57510586 104.01023909 -26.01588083 100.26100131 -29.30730629 96.31665134 C-30.90822976 94.46900059 -32.66680692 92.91756259 -34.55834961 91.37280273 C-37.14168733 89.18087982 -39.40823892 86.99032879 -41.55834961 84.37280273 C-44.2688066 81.08205821 -47.29593875 78.39571524 -50.53491211 75.63452148 C-54.94807455 71.79217349 -59.25540698 67.73007131 -62.55834961 62.87280273 C-61.2638622 60.00968726 -59.92077401 58.00391828 -57.65332031 55.8359375 C-56.77780266 54.98969566 -56.77780266 54.98969566 -55.88459778 54.12635803 C-54.94386665 53.22934425 -54.94386665 53.22934425 -53.98413086 52.31420898 C-52.66389625 51.02899019 -51.34425231 49.74316441 -50.02514648 48.45678711 C-47.94416028 46.43786843 -45.85898072 44.42395628 -43.76318359 42.42041016 C-41.74002216 40.48171518 -39.73607028 38.52477815 -37.73413086 36.56420898 C-37.10090408 35.96822403 -36.46767731 35.37223907 -35.81526184 34.75819397 C-34.22378286 33.18586236 -32.79309112 31.73853036 -31.55834961 29.87280273 C-31.49647716 27.02566424 -31.49647716 27.02566424 -32.55834961 24.87280273 C-37.6254626 29.11490409 -42.37058332 33.54997363 -47.02319336 38.23999023 C-47.70136612 38.91957794 -48.37953888 39.59916565 -49.07826233 40.29934692 C-51.21984102 42.44647275 -53.3578949 44.597069 -55.49584961 46.74780273 C-56.9572055 48.21418046 -58.41879187 49.68032854 -59.88061523 51.14624023 C-63.44252895 54.71911274 -67.00128826 58.29509957 -70.55834961 61.87280273 C-65.36263767 68.1711 -59.6603383 73.89213357 -53.87133789 79.64160156 C-52.79634313 80.71303451 -51.72158665 81.78470657 -50.64704895 82.8565979 C-48.3452894 85.15184041 -46.04203016 87.44556329 -43.73761368 89.7381382 C-40.09620294 93.36118141 -36.45920703 96.98863478 -32.82296753 100.61686707 C-22.48688377 110.92885035 -12.14482382 121.23482807 -1.79858398 131.53662109 C3.92496422 137.23565886 9.64494251 142.93825536 15.36108029 148.64472598 C18.97812639 152.25521811 22.59963887 155.86115148 26.22448421 159.46381247 C28.47070373 161.69834268 30.71277 163.93700335 32.95365334 166.1768837 C33.9968383 167.21791288 35.04175511 168.25720981 36.08848 169.29467964 C37.51154282 170.70563918 38.92795627 172.12329594 40.34396362 173.54133606 C41.13997419 174.33420423 41.93598476 175.12707239 42.75611687 175.94396687 C44.44165039 177.87280273 44.44165039 177.87280273 44.44165039 179.87280273 C39.21816733 180.86653233 35.12002928 180.96065865 30.55780983 178.00361633 C27.37886934 175.16472012 24.40717842 172.20072347 21.45263672 169.13256836 C20.3006845 167.97751018 19.14629838 166.82487503 17.98968506 165.67448425 C14.86822127 162.55616767 11.78176194 159.40518795 8.70061326 156.24709892 C5.47066151 152.94823032 2.20938294 149.68063065 -1.04866028 146.4095459 C-7.20820725 140.21585392 -13.33918587 133.99466858 -19.46032268 127.76303911 C-26.43255223 120.66771883 -33.43616512 113.60372967 -40.44255102 106.54216099 C-54.84960458 92.02022969 -69.21691663 77.45952356 -83.55834961 62.87280273 C-80.22512066 58.92218457 -76.86879042 55.05805105 -73.20532227 51.40625 C-72.40494537 50.60594864 -71.60456848 49.80564728 -70.77993774 48.98109436 C-69.51396255 47.7228611 -69.51396255 47.7228611 -68.22241211 46.43920898 C-67.34306 45.56127182 -66.46370789 44.68333466 -65.55770874 43.77879333 C-62.76860903 40.99525862 -59.97603943 38.21523505 -57.18334961 35.43530273 C-55.2830954 33.54063608 -53.38360308 31.64520644 -51.48413086 29.74975586 C-46.84484357 25.12145112 -42.20270794 20.49601853 -37.55834961 15.87280273 C-38.54834961 14.22280273 -39.53834961 12.57280273 -40.55834961 10.87280273 C-57.38834961 27.70280273 -74.21834961 44.53280273 -91.55834961 61.87280273 C-87.96917685 66.06017095 -84.57096695 69.98405346 -80.69876099 73.83918762 C-79.77337021 74.76306274 -78.84797943 75.68693787 -77.89454651 76.6388092 C-76.8868498 77.63977975 -75.87911224 78.64070918 -74.87133789 79.64160156 C-73.79634313 80.71303451 -72.72158665 81.78470657 -71.64704895 82.8565979 C-69.3452894 85.15184041 -67.04203016 87.44556329 -64.73761368 89.7381382 C-61.09620294 93.36118141 -57.45920703 96.98863478 -53.82296753 100.61686707 C-43.48688377 110.92885035 -33.14482382 121.23482807 -22.79858398 131.53662109 C-17.07503578 137.23565886 -11.35505749 142.93825536 -5.63891971 148.64472598 C-2.02187361 152.25521811 1.59963887 155.86115148 5.22448421 159.46381247 C7.47070373 161.69834268 9.71277 163.93700335 11.95365334 166.1768837 C12.9968383 167.21791288 14.04175511 168.25720981 15.08848 169.29467964 C16.51154282 170.70563918 17.92795627 172.12329594 19.34396362 173.54133606 C20.13997419 174.33420423 20.93598476 175.12707239 21.75611687 175.94396687 C23.44165039 177.87280273 23.44165039 177.87280273 23.44165039 179.87280273 C19.50275734 180.85286265 16.38853497 180.86947328 12.44165039 179.87280273 C6.97410123 176.3256503 2.65488167 171.11731351 -1.74584961 166.37280273 C-2.99389568 165.06952192 -4.24452655 163.76871115 -5.49780273 162.47045898 C-8.5486121 159.2990148 -11.56222883 156.09592641 -14.55834961 152.87280273 C-17.87762639 156.16978467 -17.87762639 156.16978467 -21.12084961 159.54077148 C-26.65732213 165.39318401 -33.12534838 170.06498076 -39.55834961 174.87280273 C-38.16948551 178.00931497 -36.55875763 180.10911023 -34.1184082 182.50805664 C-33.41783295 183.20202545 -32.71725769 183.89599426 -31.99545288 184.61099243 C-31.24019318 185.34965546 -30.48493347 186.08831848 -29.70678711 186.84936523 C-28.93275543 187.61582367 -28.15872375 188.3822821 -27.36123657 189.17196655 C-24.89001018 191.61876146 -22.41247824 194.05901637 -19.93334961 196.49780273 C-16.66468323 199.71350461 -13.40251706 202.9355933 -10.14428711 206.16186523 C-9.00532486 207.27593246 -9.00532486 207.27593246 -7.84335327 208.4125061 C-7.14908234 209.10017059 -6.4548114 209.78783508 -5.73950195 210.49633789 C-5.12376312 211.10160309 -4.50802429 211.70686829 -3.87362671 212.33047485 C-2.55834961 213.87280273 -2.55834961 213.87280273 -2.55834961 215.87280273 C-20.84119908 219.72386148 -44.27588447 223.34011093 -60.92208898 212.85276783 C-77.7758377 201.31801289 -91.64011823 185.11115329 -105.25011814 170.05498636 C-110.98033527 163.72804528 -116.87410353 157.56301907 -122.78153574 151.40199387 C-131.93949288 141.84352642 -141.00904929 132.20844699 -149.94433594 122.44140625 C-150.82419662 121.48187546 -151.70405731 120.52234467 -152.61058044 119.53373718 C-153.40064484 118.66570465 -154.19070923 117.79767212 -155.00471497 116.90333557 C-155.695435 116.14469995 -156.38615503 115.38606432 -157.09780598 114.60443974 C-158.55834961 112.87280273 -158.55834961 112.87280273 -158.55834961 111.87280273 C-110.81894049 106.07349205 -110.81894049 106.07349205 -96.12272644 117.08998108 C-86.67294885 125.14954051 -78.77726585 134.80623579 -71.55834961 144.87280273 C-64.62716788 140.71964499 -58.47288337 136.45683324 -52.80834961 130.68530273 C-51.86862305 129.78134766 -51.86862305 129.78134766 -50.90991211 128.85913086 C-50.32467773 128.27196289 -49.73944336 127.68479492 -49.13647461 127.07983398 C-48.61472656 126.55881104 -48.09297852 126.03778809 -47.55541992 125.50097656 C-46.38724286 123.94179665 -46.38724286 123.94179665 -46.66191101 122.12644958 C-47.98460515 118.80119621 -50.39245971 116.64694078 -52.90429688 114.1862793 C-53.46039642 113.62974167 -54.01649597 113.07320404 -54.58944702 112.49980164 C-56.42752789 110.66380916 -58.27600293 108.83866834 -60.12475586 107.01342773 C-61.40193347 105.74184588 -62.67844992 104.46959963 -63.95433044 103.19671631 C-67.31298843 99.84950861 -70.68055825 96.51140791 -74.05004883 93.17510986 C-77.48726892 89.76858647 -80.91600438 86.35354688 -84.34545898 82.93920898 C-91.0748017 76.24203369 -97.81358773 69.55444652 -104.55834961 62.87280273 C-103.2294008 61.31958243 -101.8996989 59.76700424 -100.56784058 58.21627808 C-99.11155478 56.51795253 -97.65938401 54.81609559 -96.20974731 53.11209106 C-88.88635208 44.52853096 -81.3515794 36.15394149 -73.62084961 27.93530273 C-73.01617229 27.29178234 -72.41149498 26.64826195 -71.78849411 25.98524094 C-50.12753969 3.09662198 -32.47773751 -7.43661909 0 0 Z M-30.80493164 41.89233398 C-32.17174072 43.27485352 -32.17174072 43.27485352 -33.56616211 44.68530273 C-34.0516452 45.17361572 -34.5371283 45.66192871 -35.037323 46.16503906 C-36.59074092 47.72967491 -38.1370718 49.30111322 -39.68334961 50.87280273 C-40.73367222 51.93315306 -41.78444783 52.99305489 -42.83569336 54.05249023 C-45.41519377 56.6540723 -47.98838098 59.26180047 -50.55834961 61.87280273 C-46.04383002 67.27460997 -41.2829912 72.33110561 -36.30834961 77.31030273 C-35.2294043 78.40761719 -35.2294043 78.40761719 -34.12866211 79.52709961 C-33.44030273 80.21739258 -32.75194336 80.90768555 -32.04272461 81.61889648 C-31.42107422 82.24465576 -30.79942383 82.87041504 -30.15893555 83.51513672 C-28.65395481 85.08842431 -28.65395481 85.08842431 -26.55834961 84.87280273 C-22.78017279 70.77210711 -23.20955639 54.04537403 -26.55834961 39.87280273 C-28.81393149 39.64996039 -28.81393149 39.64996039 -30.80493164 41.89233398 Z " fill="#8157E5" transform="translate(260.558349609375,76.127197265625)"/>
<path d="M0 0 C15.74588068 13.9290483 15.74588068 13.9290483 17.3515625 18.74609375 C8.89230585 18.88630418 0.43355004 18.99231759 -8.02658844 19.05696678 C-11.95678814 19.08802566 -15.88618194 19.13001761 -19.81591797 19.19873047 C-23.62209254 19.26485164 -27.42750174 19.29998994 -31.23420715 19.31535721 C-32.67247033 19.3262804 -34.11070083 19.34760044 -35.54862976 19.38047409 C-45.45071456 19.59744979 -53.15564048 18.01877186 -62.2364502 14.16616821 C-81.72927894 6.05322234 -106.48824433 9.10819289 -125.6484375 16.74609375 C-150.84232552 27.36347534 -168.69333953 45.81183432 -179.6484375 70.74609375 C-189.09220886 94.65064 -188.3733459 121.59513819 -178.3359375 145.12109375 C-168.20944176 167.45760432 -152.2845076 183.28177515 -130.24868774 193.90274048 C-122.5333873 197.77173037 -116.95565585 202.7507429 -110.94921875 208.88671875 C-109.97940474 209.86079493 -109.00861601 210.83390151 -108.03691101 211.80609131 C-106.02338748 213.82572274 -104.01831462 215.8532368 -102.01977539 217.88769531 C-99.45509265 220.4981044 -96.87496233 223.09256179 -94.28916645 225.68204117 C-92.29385467 227.68176844 -90.30402471 229.68687155 -88.31612206 231.6939621 C-86.90401114 233.11926482 -85.48941191 234.54210085 -84.07478333 235.96490479 C-83.22937485 236.82630066 -82.38396637 237.68769653 -81.51293945 238.57519531 C-80.76446243 239.33431213 -80.01598541 240.09342896 -79.24482727 240.87554932 C-77.6484375 242.74609375 -77.6484375 242.74609375 -77.6484375 244.74609375 C-110.48961126 248.47919184 -146.26452518 239.09239367 -172.5859375 218.80859375 C-203.21850917 193.93665818 -223.3399938 161.90541577 -228.23828125 122.35546875 C-231.89163809 86.44051991 -222.57072133 49.05425254 -199.6484375 20.74609375 C-195.19355212 15.53626974 -190.56030995 10.5287064 -185.6484375 5.74609375 C-185.19855469 5.25109375 -184.74867188 4.75609375 -184.28515625 4.24609375 C-137.2281839 -46.19711234 -50.11345065 -42.6481726 0 0 Z " fill="#993EE8" transform="translate(228.6484375,32.25390625)"/>
<path d="M0 0 C3.77815808 0.0107168 7.55584077 0.00006206 11.33398438 -0.01269531 C40.96133092 -0.03163527 65.74286157 4.11453416 87.96679688 25.34277344 C103.44119838 41.56982093 109.85288596 64.26317151 109.78710938 86.26074219 C109.10777454 107.56089898 103.47901876 127.94044631 89.38867188 144.37011719 C87.73090682 146.17573791 87.73090682 146.17573791 86.78710938 148.26074219 C88.10802754 149.27683308 89.42896774 150.29289533 90.75 151.30883789 C91.91182056 152.20273579 93.07327162 153.0971141 94.234375 153.99194336 C97.27093241 156.33105681 100.31274739 158.66243473 103.36914062 160.97558594 C103.94253174 161.4114502 104.51592285 161.84731445 105.10668945 162.29638672 C106.70669488 163.51213979 108.30933394 164.72442452 109.91210938 165.93652344 C112.73966259 168.22238507 115.23747658 170.6732834 117.78710938 173.26074219 C111.98902297 173.48474698 106.19350083 173.64723164 100.39208984 173.75512695 C98.42289313 173.80013809 96.45399299 173.8613718 94.48583984 173.93969727 C76.02435427 174.6555126 76.02435427 174.6555126 69.43554688 168.72558594 C67.21435547 166.2097168 67.21435547 166.2097168 65.78710938 164.26074219 C64.40652344 164.85822266 64.40652344 164.85822266 62.99804688 165.46777344 C61.71966711 166.00356496 60.44100531 166.5386839 59.16210938 167.07324219 C58.56398438 167.33427734 57.96585938 167.5953125 57.34960938 167.86425781 C45.77230564 172.64875579 33.88089246 173.72280749 21.47460938 173.65917969 C20.04841972 173.66120959 18.62223109 173.66412855 17.19604492 173.6678772 C14.23118037 173.67225765 11.26659004 173.66600997 8.30175781 173.65185547 C4.54347386 173.63476589 0.78583313 173.64463043 -2.97242737 173.66257286 C-5.91024428 173.67352801 -8.84791421 173.66991138 -11.78573608 173.66218948 C-13.16970907 173.66021967 -14.5536964 173.66253028 -15.93765259 173.66962814 C-38.8816879 173.76154147 -59.84040926 166.4032026 -76.39257812 150.20605469 C-93.4283326 132.80071096 -101.66022777 109.61141566 -101.52539062 85.51074219 C-101.52047607 84.46233154 -101.51556152 83.4139209 -101.51049805 82.33374023 C-101.1578574 58.8478729 -92.70503985 38.77662112 -76.21289062 22.26074219 C-75.55417969 21.59042969 -74.89546875 20.92011719 -74.21679688 20.22949219 C-53.8728787 0.97933305 -26.40814955 -0.08917038 0 0 Z M-57.80273438 49.17480469 C-68.23229402 62.52869791 -71.86125515 78.59817517 -70.21289062 95.26074219 C-68.02684134 109.7411603 -61.42003628 123.28981482 -49.60742188 132.23339844 C-40.45475951 138.31365792 -31.27916049 142.36550816 -20.20092773 142.40600586 C-19.01297104 142.41238571 -17.82501434 142.41876556 -16.60105896 142.42533875 C-15.32698685 142.42645157 -14.05291473 142.42756439 -12.74023438 142.42871094 C-10.76743248 142.43370354 -10.76743248 142.43370354 -8.754776 142.438797 C-5.97672707 142.44477044 -3.19870919 142.4466386 -0.4206543 142.44604492 C3.13583209 142.44594309 6.69211978 142.45962481 10.248559 142.47681713 C13.648131 142.49061331 17.04766598 142.49002564 20.44726562 142.49121094 C21.72336197 142.49839645 22.99945831 142.50558197 24.31422424 142.51298523 C26.09143105 142.50837029 26.09143105 142.50837029 27.90454102 142.50366211 C29.46743614 142.50579964 29.46743614 142.50579964 31.06190491 142.50798035 C33.80516492 142.25910414 35.44867339 141.67155944 37.78710938 140.26074219 C28.77352259 132.87862618 19.70453661 125.60535925 10.44628906 118.53173828 C7.3822673 116.18457858 4.33161876 113.82063912 1.28710938 111.44824219 C0.71138184 111.00399902 0.1356543 110.55975586 -0.45751953 110.10205078 C-1.00585449 109.67359863 -1.55418945 109.24514648 -2.11914062 108.80371094 C-2.59673828 108.43270264 -3.07433594 108.06169434 -3.56640625 107.67944336 C-5.90678219 105.66284719 -8.04562358 103.46035308 -10.21289062 101.26074219 C-4.71649699 101.18055048 0.7758234 101.16057915 6.27270508 101.19360352 C8.13765688 101.19666372 10.00270975 101.18398313 11.86743164 101.15454102 C29.33133409 100.89723734 29.33133409 100.89723734 36.12695312 106.43652344 C37.71368042 108.01170636 39.27084228 109.61762355 40.78710938 111.26074219 C42.06844607 112.38802828 43.36383143 113.49971306 44.67773438 114.58886719 C46.36612381 116.05367994 48.05070651 117.52264751 49.73242188 118.99511719 C53.59492062 122.34142946 57.59068265 125.34241498 61.78710938 128.26074219 C73.23964006 116.74044504 78.02132122 102.92330267 78.22460938 86.94824219 C78.13503094 71.06486533 73.54112903 57.91601476 62.70117188 46.07324219 C59.38338638 42.93150245 55.71639314 40.56601375 51.78710938 38.26074219 C51.18511719 37.88046875 50.583125 37.50019531 49.96289062 37.10839844 C37.25640786 29.80423806 21.17440247 30.78860223 7.06225586 30.86962891 C3.72728685 30.88572926 0.3935264 30.8696973 -2.94140625 30.85058594 C-23.94493803 30.82828037 -42.6799565 32.91614807 -57.80273438 49.17480469 Z " fill="#5B5DE2" transform="translate(512.212890625,25.7392578125)"/>
<path d="M0 0 C21.181875 -0.04125 42.36375 -0.0825 64.1875 -0.125 C70.85606201 -0.14320801 77.52462402 -0.16141602 84.39526367 -0.18017578 C92.58850098 -0.18920898 92.58850098 -0.18920898 96.43379211 -0.19088745 C99.09829854 -0.19394265 101.76260997 -0.20018074 104.42707825 -0.21115112 C108.48161287 -0.22761989 112.53600816 -0.22780839 116.59057617 -0.22705078 C117.76168788 -0.234247 118.93279959 -0.24144321 120.13939953 -0.2488575 C139.32201884 -0.20122337 156.5783838 3.84007564 170.8125 17.3125 C180.72925811 27.84795068 186.62012964 42.46362746 187 57 C187.05027344 57.94617188 187.10054687 58.89234375 187.15234375 59.8671875 C187.70382183 77.91155034 183.07121046 95.26005847 171 109 C159.12081784 120 159.12081784 120 153 120 C158.13736045 126.13977225 163.69326062 131.76743373 169.40454102 137.36743164 C172.49179368 140.41291583 175.46539936 143.48922219 178.28515625 146.78515625 C182.88113629 152.1167003 187.92774749 156.99923029 192.9375 161.9375 C194.84530947 163.81878142 196.74972477 165.70329193 198.65234375 167.58984375 C199.48757568 168.41347412 200.32280762 169.23710449 201.18334961 170.08569336 C203 172 203 172 203 173 C196.88039893 173.19858915 190.76269438 173.3433151 184.640625 173.43945312 C182.56086537 173.47954799 180.48132933 173.53404133 178.40234375 173.60351562 C161.12732329 174.16611208 161.12732329 174.16611208 155.92285156 171.31323242 C153.90299368 169.3047403 152.47771477 167.42262688 151 165 C149.93589811 163.75414729 148.85471215 162.52248879 147.75 161.3125 C147.1828125 160.65378906 146.615625 159.99507812 146.03125 159.31640625 C143.48658139 156.41450531 140.8724385 153.58155178 138.25 150.75 C137.73920898 150.19803955 137.22841797 149.6460791 136.70214844 149.07739258 C135.65773581 147.9492114 134.61313824 146.8212014 133.56835938 145.69335938 C131.04193414 142.96557522 128.51864461 140.23496992 126 137.5 C125.13375 136.5615625 124.2675 135.623125 123.375 134.65625 C121 132 121 132 119.25286865 129.37519836 C117.18717062 126.75075 117.18717062 126.75075 114.05133057 126.36076355 C112.905495 126.35410172 111.75965942 126.34743988 110.57910156 126.34057617 C109.27805481 126.32093307 107.97700806 126.30128998 106.63653564 126.28105164 C105.22123071 126.28449486 103.805927 126.28847993 102.390625 126.29296875 C100.93900479 126.27985093 99.48740283 126.26454643 98.03582764 126.24714661 C94.22172419 126.2072922 90.40809815 126.19710601 86.59381104 126.19311523 C82.69911207 126.18378443 78.80469372 126.14637137 74.91015625 126.11132812 C67.27338582 126.04674768 59.63705469 126.01610793 52 126 C52 116.76 52 107.52 52 98 C54.3104834 97.98541748 56.6209668 97.97083496 59.00146484 97.95581055 C66.66500525 97.90530474 74.32834587 97.83868208 81.99168968 97.76428509 C86.63457859 97.71969994 91.27738215 97.68041817 95.92041016 97.65356445 C100.40746261 97.62741258 104.8941845 97.58692753 109.38103104 97.53681374 C111.08645111 97.52022496 112.79192825 97.50866122 114.49741745 97.50238609 C131.3052861 97.48211139 131.3052861 97.48211139 146 90 C154.37004366 81.24065198 155.49547585 71.64769763 155.2734375 60.0859375 C154.88356934 51.74430297 151.8227443 44.69661849 146.0546875 38.65625 C137.87872772 32.0657425 127.42753589 31.86091479 117.39282227 31.79467773 C115.96420191 31.77962865 115.96420191 31.77962865 114.50672054 31.76427555 C111.44330666 31.73305342 108.37987976 31.70818695 105.31640625 31.68359375 C103.41727289 31.66517527 101.51814354 31.64633779 99.61901855 31.6270752 C92.60022654 31.55881083 85.58135768 31.49864087 78.5625 31.4375 C62.866875 31.293125 47.17125 31.14875 31 31 C31 77.86 31 124.72 31 173 C20.77 173 10.54 173 0 173 C0 115.91 0 58.82 0 0 Z " fill="#5B5DE2" transform="translate(847,26)"/>
<path d="M0 0 C5.19131513 -0.96467207 9.30707748 -1.08721918 13.85188866 1.8315239 C16.98013807 4.61142022 19.90101507 7.51556839 22.80541992 10.52490234 C23.93768754 11.65699847 25.07236921 12.78668453 26.20925903 13.91413879 C29.27718042 16.97039761 32.3099682 20.0594645 35.33717895 23.15598249 C38.51167639 26.39195684 41.71669424 29.59742319 44.91828918 32.80654907 C50.28488285 38.19427542 55.63097702 43.60163692 60.96313477 49.0234375 C68.49169343 56.67846297 76.05754814 64.29578603 83.63068616 71.90667415 C89.50486279 77.81307197 95.36804344 83.73037974 101.23046875 89.6484375 C101.86074659 90.28432407 102.49102443 90.92021064 103.1404016 91.5753665 C106.75509431 95.22311041 110.3643496 98.87607108 113.96506119 102.53761864 C115.05827431 103.64791672 116.15318514 104.75654603 117.24986839 105.86341667 C118.74073923 107.36888964 120.22526949 108.88033342 121.70817566 110.39364624 C122.5419382 111.2398522 123.37570074 112.08605816 124.23472881 112.95790672 C126 115 126 115 126 117 C122.06110695 117.98005991 118.94688458 117.99667055 115 117 C109.53245084 113.45284757 105.21323128 108.24451077 100.8125 103.5 C99.56445393 102.19671918 98.31382306 100.89590842 97.06054688 99.59765625 C94.00973751 96.42621207 90.99612077 93.22312367 88 90 C84.68072322 93.29698194 84.68072322 93.29698194 81.4375 96.66796875 C75.90102748 102.52038128 69.43300123 107.19217803 63 112 C64.3888641 115.13651224 65.99959198 117.23630749 68.43994141 119.63525391 C69.49080429 120.67620712 69.49080429 120.67620712 70.56289673 121.7381897 C71.31815643 122.47685272 72.07341614 123.21551575 72.8515625 123.9765625 C73.62559418 124.74302094 74.39962585 125.50947937 75.19711304 126.29916382 C77.66833943 128.74595872 80.14587137 131.18621364 82.625 133.625 C85.89366638 136.84070188 89.15583255 140.06279057 92.4140625 143.2890625 C93.55302475 144.40312973 93.55302475 144.40312973 94.71499634 145.53970337 C95.40926727 146.22736786 96.10353821 146.91503235 96.81884766 147.62353516 C97.43458649 148.22880035 98.05032532 148.83406555 98.6847229 149.45767212 C100 151 100 151 100 153 C81.71715053 156.85105874 58.28246514 160.4673082 41.63626063 149.97996509 C24.7825119 138.44521016 10.91823138 122.23835055 -2.69176853 107.18218362 C-8.42198566 100.85524255 -14.31575392 94.69021633 -20.22318614 88.52919114 C-29.38114327 78.97072369 -38.45069969 69.33564426 -47.38598633 59.56860352 C-48.70577736 58.12930733 -48.70577736 58.12930733 -50.05223083 56.66093445 C-50.84229523 55.79290192 -51.63235962 54.92486938 -52.44636536 54.03053284 C-53.13708539 53.27189721 -53.82780542 52.51326159 -54.53945637 51.731637 C-56 50 -56 50 -56 49 C-8.26059088 43.20068931 -8.26059088 43.20068931 6.43562317 54.21717834 C15.88540076 62.27673778 23.78108376 71.93343305 31 82 C37.93118173 77.84684225 44.08546624 73.58403051 49.75 67.8125 C50.37648438 67.20986328 51.00296875 66.60722656 51.6484375 65.98632812 C52.23367187 65.39916016 52.81890625 64.81199219 53.421875 64.20703125 C53.94362305 63.6860083 54.46537109 63.16498535 55.00292969 62.62817383 C56.17425731 61.06686365 56.17425731 61.06686365 55.88496399 59.2401886 C54.60288254 55.99474102 52.29390992 53.91808369 49.83764648 51.52880859 C49.30105408 50.99499069 48.76446167 50.46117279 48.21160889 49.91117859 C46.43815713 48.15000325 44.65455239 46.39947339 42.87109375 44.6484375 C41.63861479 43.42663313 40.40694079 42.20401627 39.17604065 40.98062134 C35.935387 37.76275541 32.68670873 34.55312964 29.4354248 31.3460083 C24.22596911 26.2067356 19.02401986 21.0599621 13.83107185 15.90401077 C12.01171747 14.10141728 10.18609428 12.3053446 8.35997009 10.50961304 C7.25070659 9.41080502 6.14168924 8.31174843 5.03295898 7.21240234 C4.52023941 6.71158646 4.00751984 6.21077057 3.47926331 5.69477844 C2.28099211 4.50062713 1.1346484 3.25476063 0 2 C0 1.34 0 0.68 0 0 Z " fill="#7464E3" transform="translate(158,139)"/>
<path d="M0 0 C10.23 0 20.46 0 31 0 C31 57.09 31 114.18 31 173 C20.77 173 10.54 173 0 173 C0 148.58 0 124.16 0 99 C-28.71 99 -57.42 99 -87 99 C-87 89.76 -87 80.52 -87 71 C-58.29 71 -29.58 71 0 71 C0 47.57 0 24.14 0 0 Z " fill="#5B5DE2" transform="translate(792,26)"/>
<path d="M0 0 C10.23 0 20.46 0 31 0 C31 57.09 31 114.18 31 173 C20.77 173 10.54 173 0 173 C0 115.91 0 58.82 0 0 Z " fill="#5B5DE2" transform="translate(654,26)"/>
<path d="M0 0 C0.82770905 -0.01139008 1.65541809 -0.02278015 2.50820923 -0.03451538 C11.18403563 -0.14530944 19.86072424 -0.19262896 28.53710938 -0.23535156 C32.65407074 -0.25761243 36.77012356 -0.29935394 40.88671875 -0.35839844 C45.85466038 -0.42952021 50.82174797 -0.46618932 55.79017258 -0.47846985 C57.68243159 -0.48886747 59.57466495 -0.51128484 61.46663284 -0.54606628 C78.1575682 -0.8369712 78.1575682 -0.8369712 82.81933594 3.64453125 C85.10302734 6.63110964 85.10302734 6.63110964 85.10302734 9.22460938 C53.75302734 9.22460938 22.40302734 9.22460938 -9.89697266 9.22460938 C-8.62190403 -0.97593961 -8.73714804 0.08190867 0 0 Z " fill="#8D4AE7" transform="translate(282.89697265625,164.775390625)"/>
<path d="M0 0 C2.04254996 1.84488384 3.72227186 3.48572029 5.03607178 5.91853333 C4.975797 9.39659725 2.79447768 10.8822012 0.42285156 13.3034668 C-0.07627243 13.81938385 -0.57539642 14.3353009 -1.08964539 14.86685181 C-2.74967014 16.57450133 -4.42806301 18.26254027 -6.109375 19.94921875 C-7.27309958 21.12901033 -8.43644479 22.30917622 -9.59942627 23.48970032 C-12.04551078 25.96576653 -14.50175846 28.43123052 -16.96435547 30.89086914 C-20.10729281 34.03330023 -23.2145318 37.20858135 -26.31371689 40.39409161 C-28.70906435 42.84526922 -31.12703985 45.27314246 -33.55176544 47.69523048 C-34.70640632 48.85574591 -35.85300841 50.02432051 -36.9910202 51.20114708 C-47.01244057 61.53166183 -47.01244057 61.53166183 -54.29394531 62.22192383 C-57.04034424 62.18733215 -57.04034424 62.18733215 -59 62 C-59 58.29096709 -57.77556902 57.42324093 -55.25578308 54.88252258 C-54.70408951 54.34161484 -54.15239594 53.80070709 -53.58398438 53.2434082 C-53.00852371 52.66750946 -52.43306305 52.09161072 -51.84016418 51.4982605 C-49.93171606 49.59190641 -48.0128529 47.69640402 -46.09375 45.80078125 C-44.77030361 44.48292861 -43.44751697 43.16441311 -42.12536621 41.84526062 C-38.64009996 38.37146049 -35.14591906 34.90676221 -31.64984131 31.44384766 C-28.08537937 27.91004841 -24.52937239 24.36776402 -20.97265625 20.82617188 C-13.99004606 13.87575701 -6.99799414 6.93492295 0 0 Z " fill="#9542E8" transform="translate(216,78)"/>
<path d="M0 0 C0.78375 0.495 1.5675 0.99 2.375 1.5 C2.705 0.84 3.035 0.18 3.375 -0.5 C5.025 -0.5 6.675 -0.5 8.375 -0.5 C8.44957894 4.07149757 8.50380276 8.64263509 8.53979492 13.21459961 C8.55481105 14.7673968 8.57523028 16.32015209 8.60131836 17.87280273 C8.63802073 20.11452624 8.65479787 22.35568539 8.66796875 24.59765625 C8.68345261 25.28336197 8.69893646 25.96906769 8.71488953 26.67555237 C8.71663121 31.74978271 7.67314001 35.07396527 5.375 39.5 C0.0516209 44.55721014 -4.51899025 44.83584146 -11.6015625 44.79296875 C-16.75857733 44.29325801 -19.96721761 42.15778239 -23.625 38.5 C-23.25 36.375 -23.25 36.375 -22.625 34.5 C-19.625 34.5 -19.625 34.5 -17.625 36.4375 C-16.965 37.118125 -16.305 37.79875 -15.625 38.5 C-10.62847926 40.16550691 -5.56727317 40.13421165 -0.5625 38.5 C0.076875 38.17 0.71625 37.84 1.375 37.5 C1.705 34.2 2.035 30.9 2.375 27.5 C1.67246094 27.98597656 0.96992187 28.47195313 0.24609375 28.97265625 C-4.54288866 31.52026458 -9.33359363 31.13898937 -14.625 30.5 C-19.5096525 28.23212562 -22.35712562 25.3846525 -24.625 20.5 C-25.37570518 14.92333292 -25.37243187 10.17424739 -23.0625 5 C-16.35239777 -1.88215613 -8.99320505 -3.72132623 0 0 Z M-19.5 8.8125 C-20.97617243 12.33891192 -21.09118895 14.70389 -20.625 18.5 C-18.49583984 22.53019601 -16.83862823 24.80220108 -12.625 26.5 C-8.83123855 27.15528607 -5.1722585 27.36351149 -1.7421875 25.44921875 C1.20942439 23.03231916 3.19802945 21.13915347 3.61328125 17.29296875 C3.77409842 11.6550755 3.77409842 11.6550755 1.6875 6.5 C-1.65337571 3.61059398 -4.20665064 2.68106588 -8.5625 2.125 C-13.47268745 2.72624744 -16.42665507 5.02204125 -19.5 8.8125 Z " fill="#54575E" transform="translate(825.625,257.5)"/>
<path d="M0 0 C2.875 1.375 2.875 1.375 5 3 C5.99 3.66 6.98 4.32 8 5 C8.763125 4.360625 9.52625 3.72125 10.3125 3.0625 C14.92518351 -0.47746641 19.38613262 -0.56336345 25 0 C28.23300086 1.47593517 30.72160787 3.26592945 33 6 C34.07917226 9.23751678 34.11425601 11.57751771 34.09765625 14.98046875 C34.09443359 16.14384766 34.09121094 17.30722656 34.08789062 18.50585938 C34.07532227 20.32827148 34.07532227 20.32827148 34.0625 22.1875 C34.05798828 23.41404297 34.05347656 24.64058594 34.04882812 25.90429688 C34.03703065 28.93624668 34.02056921 31.96809906 34 35 C32.68 35 31.36 35 30 35 C29.98018066 34.33468262 29.96036133 33.66936523 29.93994141 32.98388672 C29.84423582 29.94721732 29.73474192 26.91119322 29.625 23.875 C29.5940625 22.82828125 29.563125 21.7815625 29.53125 20.703125 C29.33235367 15.4655217 29.08331625 10.89494631 27 6 C20.41642854 4.85995014 20.41642854 4.85995014 14 6.125 C10.36114197 9.5364294 9.75557854 13.46601151 9.5859375 18.30078125 C9.54726563 19.27724609 9.50859375 20.25371094 9.46875 21.25976562 C9.42234375 22.77086914 9.42234375 22.77086914 9.375 24.3125 C9.33632813 25.33923828 9.29765625 26.36597656 9.2578125 27.42382812 C9.16385103 29.94904265 9.0781846 32.47425592 9 35 C7.68 35 6.36 35 5 35 C4.98018066 34.3294458 4.96036133 33.6588916 4.93994141 32.96801758 C4.84440285 29.91579839 4.73484055 26.86423659 4.625 23.8125 C4.5940625 22.75740234 4.563125 21.70230469 4.53125 20.61523438 C4.49257813 19.59365234 4.45390625 18.57207031 4.4140625 17.51953125 C4.36693115 16.11344604 4.36693115 16.11344604 4.31884766 14.67895508 C3.97620145 11.80004483 3.26137314 9.60431773 2 7 C-1.16196522 4.62852608 -4.14378244 4.60650841 -8 5 C-11.13102634 6.3520341 -12.6071315 7.19576395 -14.11474609 10.28198242 C-15.02563256 13.07870029 -15.31118401 15.36874428 -15.4140625 18.30078125 C-15.45273437 19.27724609 -15.49140625 20.25371094 -15.53125 21.25976562 C-15.5621875 22.26716797 -15.593125 23.27457031 -15.625 24.3125 C-15.66367187 25.33923828 -15.70234375 26.36597656 -15.7421875 27.42382812 C-15.83614897 29.94904265 -15.9218154 32.47425592 -16 35 C-17.32 35 -18.64 35 -20 35 C-20 23.78 -20 12.56 -20 1 C-18.68 1 -17.36 1 -16 1 C-15.67 1.66 -15.34 2.32 -15 3 C-14.195625 2.505 -13.39125 2.01 -12.5625 1.5 C-8.19042066 -0.34087551 -4.68068566 -0.65754549 0 0 Z " fill="#54575E" transform="translate(616,256)"/>
<path d="M0 0 C9.1534719 -0.1391943 18.30657796 -0.24571824 27.46087837 -0.31087303 C31.71193015 -0.34214897 35.9622564 -0.38455133 40.21289062 -0.45263672 C44.31727064 -0.5179659 48.42095414 -0.55373416 52.52581406 -0.56926346 C54.08955727 -0.5803258 55.65326354 -0.60192914 57.21670914 -0.63438034 C71.0150626 -0.90931752 71.0150626 -0.90931752 75.00732422 2.91162109 C77 6 77 6 77 8 C51.59 8 26.18 8 0 8 C0 5.36 0 2.72 0 0 Z " fill="#9344E7" transform="translate(276,151)"/>
<path d="M0 0 C5.506875 -0.12375 5.506875 -0.12375 11.125 -0.25 C12.2711377 -0.28641602 13.41727539 -0.32283203 14.59814453 -0.36035156 C20.72144041 -0.4269208 24.40983512 -0.206397 29 4 C31.58414484 8.11848084 32.29675086 10.98097278 31.4375 15.6875 C29.9985587 20.91032396 27.43426682 23.04382212 23 26 C23.5775 27.13179688 24.155 28.26359375 24.75 29.4296875 C25.50020991 30.91135207 26.25019847 32.39312873 27 33.875 C27.3815625 34.62136719 27.763125 35.36773437 28.15625 36.13671875 C28.5171875 36.85214844 28.878125 37.56757813 29.25 38.3046875 C29.58515625 38.96452637 29.9203125 39.62436523 30.265625 40.30419922 C31 42 31 42 31 44 C29.35 44 27.7 44 26 44 C24.4933028 41.2118978 22.99580196 38.41896042 21.5 35.625 C21.07074219 34.8309375 20.64148438 34.036875 20.19921875 33.21875 C19.79316406 32.45820313 19.38710938 31.69765625 18.96875 30.9140625 C18.59169922 30.2123291 18.21464844 29.5105957 17.82617188 28.78759766 C17 27 17 27 17 25 C12.71 25 8.42 25 4 25 C4 31.27 4 37.54 4 44 C2.68 44 1.36 44 0 44 C0 29.48 0 14.96 0 0 Z M4 4 C4 9.61 4 15.22 4 21 C6.91765891 21.10806144 9.83131125 21.18732877 12.75 21.25 C13.575 21.28351563 14.4 21.31703125 15.25 21.3515625 C20.21255051 21.46468741 20.21255051 21.46468741 24.515625 19.19921875 C26.63347478 16.0614571 27 13.77116063 27 10 C25.23358828 7.19810554 23.96950178 5.48475089 21 4 C18.11426648 3.92800066 15.25934885 3.9072932 12.375 3.9375 C8.229375 3.9684375 8.229375 3.9684375 4 4 Z " fill="#54575E" transform="translate(928,247)"/>
<path d="M0 0 C2.72426311 2.35277269 3.8141763 4.62496331 5 8 C0.00487378 13.22781597 -5.01771387 18.42759092 -10.07612324 23.59424496 C-12.42472419 25.99482555 -14.76321177 28.40369547 -17.08032227 30.8347168 C-19.75517192 33.63137851 -22.46148416 36.39401723 -25.17578125 39.15234375 C-25.99395828 40.02213364 -26.81213531 40.89192352 -27.65510559 41.78807068 C-32.88530854 47.02321166 -36.46523811 48.98827374 -43.93913269 49.09230042 C-44.95926201 49.04661171 -44.95926201 49.04661171 -46 49 C-46 46 -46 46 -44.25366211 43.89289856 C-43.43647705 43.08237534 -42.61929199 42.27185211 -41.77734375 41.43676758 C-40.85638916 40.51603958 -39.93543457 39.59531158 -38.98657227 38.64668274 C-37.97037325 37.64580472 -36.95401196 36.64509144 -35.9375 35.64453125 C-34.90551679 34.61814256 -33.87419345 33.59109 -32.84350586 32.56340027 C-30.12761904 29.85897348 -27.40284399 27.16367569 -24.67614746 24.47015381 C-21.89588266 21.72056486 -19.12408024 18.96247467 -16.3515625 16.20507812 C-10.90930852 10.79500874 -5.45764089 5.39455146 0 0 Z " fill="#A037E9" transform="translate(224,91)"/>
<path d="M0 0 C2.94595986 1.98681014 4.6885399 3.88545128 6.6875 6.8125 C7.1 7.410625 7.5125 8.00875 7.9375 8.625 C8.6875 10.8125 8.6875 10.8125 8.6875 18.8125 C-0.8825 18.8125 -10.4525 18.8125 -20.3125 18.8125 C-17.39560364 26.18433116 -17.39560364 26.18433116 -11.3125 29.8125 C-4.49119588 31.01065322 0.06188167 28.56291222 5.6875 24.8125 C6.3475 26.1325 7.0075 27.4525 7.6875 28.8125 C1.65923815 34.0369936 -2.14135145 35.24625028 -10.23046875 35.1484375 C-14.90636614 34.63877061 -17.98069378 33.11226962 -21.3125 29.8125 C-24.80229371 25.25197413 -25.92677464 20.67353551 -25.6328125 14.98046875 C-24.72689999 8.84898774 -22.00778037 4.72523364 -17.3125 0.8125 C-11.96385165 -2.30754487 -5.6823498 -2.03706879 0 0 Z M-19.1875 8.8125 C-20.63934083 11.0111012 -20.63934083 11.0111012 -20.3125 14.8125 C-12.0625 14.8125 -3.8125 14.8125 4.6875 14.8125 C2.24490419 8.18739823 2.24490419 8.18739823 -2.3125 3.8125 C-9.64766385 1.65674574 -13.9313963 3.20598939 -19.1875 8.8125 Z " fill="#54575E" transform="translate(1181.3125,257.1875)"/>
<path d="M0 0 C4.1796989 2.8497947 7.11864324 5.98092971 8.75 10.875 C8.75 13.515 8.75 16.155 8.75 18.875 C-0.82 18.875 -10.39 18.875 -20.25 18.875 C-17.12509333 26.46110146 -17.12509333 26.46110146 -11.25 29.875 C-4.1192892 30.55411531 -0.21276837 28.85017892 5.75 24.875 C6.41 25.205 7.07 25.535 7.75 25.875 C7.75 28.125 7.75 28.125 6.75 30.875 C1.84328765 35.08267388 -4.10781934 35.54872763 -10.33984375 35.328125 C-16.01307942 34.44477555 -19.76540891 31.83849145 -23.1875 27.3125 C-25.71344061 21.51769508 -26.09076851 15.91930632 -24.1875 9.8125 C-22.36173574 5.32234292 -19.25579101 2.50607637 -15.25 -0.125 C-10.0828841 -1.84737197 -5.14400242 -1.78061622 0 0 Z M-17.25 6.875 C-19.43702362 9.86393229 -20.25 11.15444454 -20.25 14.875 C-12 14.875 -3.75 14.875 4.75 14.875 C2.86015122 9.20545367 2.00049054 7.59417922 -2.25 3.875 C-7.93427098 1.03286451 -12.70687875 3.05464804 -17.25 6.875 Z " fill="#54575E" transform="translate(1295.25,257.125)"/>
<path d="M0 0 C1.65 0 3.3 0 5 0 C5 6.6 5 13.2 5 20 C13.58 20 22.16 20 31 20 C31 13.4 31 6.8 31 0 C32.32 0 33.64 0 35 0 C35 14.52 35 29.04 35 44 C33.68 44 32.36 44 31 44 C31 37.4 31 30.8 31 24 C22.42 24 13.84 24 5 24 C5 30.6 5 37.2 5 44 C3.35 44 1.7 44 0 44 C0 29.48 0 14.96 0 0 Z " fill="#54575E" transform="translate(874,247)"/>
<path d="M0 0 C1.86260986 0.25965881 1.86260986 0.25965881 4 1 C5.20233154 2.66331482 5.20233154 2.66331482 6.19824219 4.84545898 C6.76838043 6.06693886 6.76838043 6.06693886 7.35003662 7.31309509 C7.74499329 8.19848465 8.13994995 9.08387421 8.546875 9.99609375 C8.96294006 10.8999733 9.37900513 11.80385284 9.80767822 12.73512268 C10.68504219 14.64787557 11.55545222 16.56383112 12.41943359 18.48266602 C13.7457831 21.42813538 15.09152511 24.36407924 16.44140625 27.29882812 C17.29020505 29.15572816 18.13789915 31.01313364 18.984375 32.87109375 C19.38742859 33.75445908 19.79048218 34.6378244 20.20574951 35.54795837 C20.75697479 36.77416649 20.75697479 36.77416649 21.31933594 38.02514648 C21.80753815 39.10650124 21.80753815 39.10650124 22.30560303 40.20970154 C23 42 23 42 23 44 C21.35 44 19.7 44 18 44 C17.32845067 42.71086513 16.66291141 41.41859796 16 40.125 C15.62875 39.40570313 15.2575 38.68640625 14.875 37.9453125 C14 36 14 36 14 34 C5.75 34 -2.5 34 -11 34 C-11.495 36.475 -11.495 36.475 -12 39 C-13.25 41.8125 -13.25 41.8125 -15 44 C-17.609375 44.13671875 -17.609375 44.13671875 -20 44 C-13.66569442 29.16631913 -7.04895071 14.50814582 0 0 Z M1 8 C-0.50605402 11.28893003 -2.00380532 14.58157446 -3.5 17.875 C-3.92925781 18.81214844 -4.35851562 19.74929688 -4.80078125 20.71484375 C-5.20683594 21.61074219 -5.61289062 22.50664062 -6.03125 23.4296875 C-6.40830078 24.25710449 -6.78535156 25.08452148 -7.17382812 25.93701172 C-8.12392316 27.93906349 -8.12392316 27.93906349 -8 30 C-1.4 30 5.2 30 12 30 C10.54962735 26.51731505 9.09018614 23.03894625 7.625 19.5625 C7.2125 18.56927734 6.8 17.57605469 6.375 16.55273438 C5.97539062 15.60849609 5.57578125 14.66425781 5.1640625 13.69140625 C4.79748535 12.81685791 4.4309082 11.94230957 4.05322266 11.04125977 C3.17152665 8.84001396 3.17152665 8.84001396 1 8 Z " fill="#54575E" transform="translate(441,247)"/>
<path d="M0 0 C3.54158405 1.85546607 5.51706177 3.51409647 6.87890625 7.234375 C7.10595703 10.16699219 7.10595703 10.16699219 7.07421875 13.53125 C7.06777344 14.73652344 7.06132813 15.94179688 7.0546875 17.18359375 C7.03792969 18.43785156 7.02117188 19.69210937 7.00390625 20.984375 C6.99488281 22.25410156 6.98585938 23.52382813 6.9765625 24.83203125 C6.9529963 27.96633593 6.92009457 31.10026041 6.87890625 34.234375 C5.55890625 34.234375 4.23890625 34.234375 2.87890625 34.234375 C2.54890625 33.574375 2.21890625 32.914375 1.87890625 32.234375 C1.17765625 32.72164063 0.47640625 33.20890625 -0.24609375 33.7109375 C-3.49432191 35.43214535 -5.47265571 35.63729672 -9.12109375 35.609375 C-10.13171875 35.61710937 -11.14234375 35.62484375 -12.18359375 35.6328125 C-15.54742444 35.17654823 -17.40459581 34.2434516 -20.12109375 32.234375 C-22.8051802 28.20824533 -22.92719781 24.96620582 -22.12109375 20.234375 C-20.19752502 16.66097617 -18.03286835 14.53829987 -14.12109375 13.234375 C-11.95610355 13.13951718 -9.78815552 13.10449423 -7.62109375 13.109375 C-6.47640625 13.10679687 -5.33171875 13.10421875 -4.15234375 13.1015625 C-1.12109375 13.234375 -1.12109375 13.234375 1.87890625 14.234375 C1.66208153 9.20650292 1.66208153 9.20650292 -1.12109375 5.234375 C-6.6477558 3.39215432 -11.44080753 4.49740736 -16.68359375 6.796875 C-17.48796875 7.27125 -18.29234375 7.745625 -19.12109375 8.234375 C-19.45109375 6.584375 -19.78109375 4.934375 -20.12109375 3.234375 C-13.59619245 -0.63223318 -7.45502008 -2.69094648 0 0 Z M-16.37109375 19.359375 C-18.38073676 22.11851654 -18.38073676 22.11851654 -18.18359375 25.359375 C-17.30148626 28.21085564 -17.30148626 28.21085564 -15.62109375 30.109375 C-11.80130498 31.82827995 -8.23960056 31.77860626 -4.12109375 31.234375 C-1.12178885 29.95807504 0.33534131 29.01089635 2.19140625 26.359375 C2.99159312 23.88607014 3.02245252 21.81820794 2.87890625 19.234375 C-3.51182189 16.35160089 -10.334093 15.41210528 -16.37109375 19.359375 Z " fill="#54575E" transform="translate(685.12109375,256.765625)"/>
<path d="M0 0 C4.37214897 2.51222269 6.72930507 5.47845801 8.9375 10 C10.17749821 15.97453685 9.69098147 21.25667859 6.875 26.6875 C3.11595551 31.07305191 -0.12617525 33.97558484 -6.01171875 34.5859375 C-12.1159299 34.78915068 -16.74278604 34.64208414 -21.75 30.91796875 C-26.05846208 26.66129107 -27.58713289 22.1822652 -27.8125 16.1875 C-27.55899215 11.00643329 -26.46788284 7.41527826 -22.72265625 3.65234375 C-16.11495588 -2.25686821 -8.30322967 -3.86341643 0 0 Z M-20.73828125 8.078125 C-23.10971416 12.21794603 -23.96346575 15.71106531 -23.0546875 20.421875 C-21.63566059 24.36905331 -19.09518146 27.27684436 -15.48046875 29.453125 C-11.80956032 30.95145497 -8.26527258 30.85281564 -4.375 30.3125 C-0.62973434 28.50922394 1.16625416 26.98532723 3.5 23.5625 C4.8638688 19.62243459 5.35819703 16.43158446 4.625 12.3125 C2.22617067 7.51484134 -0.59914226 4.747251 -5.375 2.3125 C-11.62208453 1.40383316 -16.85256663 3.04562354 -20.73828125 8.078125 Z " fill="#54575E" transform="translate(1093.375,257.6875)"/>
<path d="M0 0 C4.36901739 2.55228602 7.0155172 5.71627142 8.6875 10.5 C9.56425626 16.92392566 9.63687546 23.1025202 5.6875 28.5 C1.11635864 33.07114136 -2.63034302 34.65740992 -9.0625 34.8125 C-14.80062142 34.75705921 -17.77667596 33.99636436 -22.3125 30.5 C-27.2704236 25.15066138 -27.73413446 20.66916951 -27.6484375 13.58203125 C-27.13843123 8.90302023 -25.60945147 5.83706037 -22.3125 2.5 C-15.79235707 -2.58889204 -7.54846906 -3.18428826 0 0 Z M-20.625 8 C-23.4475365 12.18153556 -23.73371057 15.52971527 -23.3125 20.5 C-20.73672676 25.11862787 -18.3932921 28.80640263 -13.3125 30.5 C-7.96030697 30.84530278 -4.64252984 30.98807959 -0.3125 27.5 C3.47465237 23.92324499 4.44125028 20.76048372 4.78515625 15.7109375 C4.58378933 11.15199035 2.55808914 8.44740582 -0.4375 5.1875 C-7.75277459 0.89375187 -14.7992122 1.70185103 -20.625 8 Z " fill="#54575E" transform="translate(573.3125,257.5)"/>
<path d="M0 0 C23.5 0 23.5 0 28.75 4.5 C31.29156284 7.54987541 31.35053149 11.02907492 31.265625 14.87109375 C30.80098315 18.59506152 29.6240805 21.29726859 27 24 C20.14085145 28.2511646 11.71938355 27.22483641 4 27 C4 32.61 4 38.22 4 44 C2.68 44 1.36 44 0 44 C0 29.48 0 14.96 0 0 Z M4 4 C4 10.27 4 16.54 4 23 C14.49153057 23.66294184 14.49153057 23.66294184 24 20 C26.44521115 16.33218328 26.72237759 13.26546767 26 9 C24.12984906 6.56880377 22.71861655 5.35930827 20 4 C17.28024285 3.92812481 14.59325368 3.9072138 11.875 3.9375 C7.976875 3.9684375 7.976875 3.9684375 4 4 Z " fill="#54575E" transform="translate(998,247)"/>
<path d="M0 0 C3.99248074 2.03253565 6.69133316 4.17034376 9 8 C9.34057617 10.93261719 9.34057617 10.93261719 9.29296875 14.296875 C9.28330078 15.50214844 9.27363281 16.70742188 9.26367188 17.94921875 C9.23853516 19.20347656 9.21339844 20.45773437 9.1875 21.75 C9.16719727 23.65458984 9.16719727 23.65458984 9.14648438 25.59765625 C9.1111324 28.73219844 9.06178248 31.86588545 9 35 C7.68 35 6.36 35 5 35 C4.9906543 34.29915283 4.98130859 33.59830566 4.97167969 32.8762207 C4.91785456 29.68760975 4.83423064 26.50044667 4.75 23.3125 C4.73582031 22.20970703 4.72164062 21.10691406 4.70703125 19.97070312 C4.56371496 13.57102562 4.56371496 13.57102562 2.078125 7.79296875 C-0.09437383 5.91857596 -1.1523872 5.02290845 -4.0234375 4.9453125 C-4.79945313 5.00460937 -5.57546875 5.06390625 -6.375 5.125 C-7.53128906 5.19074219 -7.53128906 5.19074219 -8.7109375 5.2578125 C-12.29666486 6.42042035 -13.17774016 7.66728923 -15 11 C-15.62561898 15.10002523 -15.69673912 19.17025635 -15.75 23.3125 C-15.77964844 24.43462891 -15.80929687 25.55675781 -15.83984375 26.71289062 C-15.91037417 29.47533207 -15.96315493 32.23693774 -16 35 C-17.65 35 -19.3 35 -21 35 C-21 23.78 -21 12.56 -21 1 C-19.35 1 -17.7 1 -16 1 C-15.67 1.66 -15.34 2.32 -15 3 C-14.071875 2.2575 -14.071875 2.2575 -13.125 1.5 C-8.71110849 -0.61866793 -4.81664426 -0.70242729 0 0 Z " fill="#54575E" transform="translate(778,256)"/>
<path d="M0 0 C1.32 0 2.64 0 4 0 C4.01458252 0.70084717 4.02916504 1.40169434 4.04418945 2.1237793 C4.11885487 5.31223009 4.21545475 8.49965513 4.3125 11.6875 C4.33505859 12.79029297 4.35761719 13.89308594 4.38085938 15.02929688 C4.41630859 16.09599609 4.45175781 17.16269531 4.48828125 18.26171875 C4.51446533 19.24100342 4.54064941 20.22028809 4.56762695 21.22924805 C5.06926263 24.44385182 6.10330027 26.37601402 8 29 C11.15796107 30.57898053 14.60670636 30.81928171 18 30 C20.96674045 28.35888555 20.96674045 28.35888555 23 25 C23.75883134 20.73360597 23.79069099 16.51295314 23.8125 12.1875 C23.83763672 11.01767578 23.86277344 9.84785156 23.88867188 8.64257812 C23.94747182 5.7613807 23.98380532 2.88170017 24 0 C25.65 0 27.3 0 29 0 C29 11.22 29 22.44 29 34 C26.33333333 34 23.66666667 34 21 34 C20.01 34.495 20.01 34.495 19 35 C13.66157758 35.53209766 9.30402629 35.64057432 4.4375 33.25 C1.23791761 30.29653933 0.11156108 28.44093726 -0.22705078 24.06738281 C-0.21657715 22.95717773 -0.20610352 21.84697266 -0.1953125 20.703125 C-0.18886719 19.49785156 -0.18242187 18.29257812 -0.17578125 17.05078125 C-0.15064453 15.16939453 -0.15064453 15.16939453 -0.125 13.25 C-0.11597656 11.98027344 -0.10695313 10.71054687 -0.09765625 9.40234375 C-0.07409005 6.26803907 -0.04118832 3.13411459 0 0 Z " fill="#54575E" transform="translate(475,257)"/>
<path d="M0 0 C1.66990507 3.07384231 2.31101086 5.49606697 2 9 C-0.66845105 13.16352127 -3.93283569 16.47310891 -7.4987793 19.87792969 C-9.17571309 21.4886783 -10.78950258 23.14753857 -12.40429688 24.8203125 C-17.20608483 29.6300618 -21.20492886 33.56322298 -28.30078125 34.21875 C-31.04418945 34.18554688 -31.04418945 34.18554688 -33 34 C-33 29.49914939 -33 29.49914939 -30.29370117 26.79199219 C-29.70276169 26.19167175 -29.1118222 25.59135132 -28.50297546 24.97283936 C-27.85617325 24.33727112 -27.20937103 23.70170288 -26.54296875 23.046875 C-25.88420242 22.38665344 -25.2254361 21.72643188 -24.54670715 21.04620361 C-23.15175932 19.65291588 -21.75185029 18.26458029 -20.34741211 16.88085938 C-18.19410197 14.75651317 -16.06007073 12.61412591 -13.92773438 10.46875 C-12.57142284 9.11867528 -11.21403643 7.76967936 -9.85546875 6.421875 C-9.21473923 5.77820984 -8.5740097 5.13454468 -7.91386414 4.47137451 C-7.01327019 3.58980682 -7.01327019 3.58980682 -6.09448242 2.69042969 C-5.56819748 2.16954773 -5.04191254 1.64866577 -4.49967957 1.11199951 C-3 0 -3 0 0 0 Z " fill="#AA2DEB" transform="translate(232,106)"/>
<path d="M0 0 C2.5625 1.75 2.5625 1.75 3.4375 3.9375 C3.47875 4.535625 3.52 5.13375 3.5625 5.75 C2.5725 6.41 1.5825 7.07 0.5625 7.75 C-0.076875 7.069375 -0.71625 6.38875 -1.375 5.6875 C-5.62088074 3.00133056 -8.67167088 3.79475756 -13.4375 4.75 C-12.56888915 8.7864857 -12.01213207 10.36971753 -8.50390625 12.69140625 C-7.34761719 13.22636719 -6.19132812 13.76132812 -5 14.3125 C-0.32018513 16.49292771 2.49491062 17.89079174 4.5625 22.75 C4.86481386 26.33833406 4.30384974 29.70537082 2.1875 32.6875 C-2.44130517 35.71402646 -8.13798569 35.30187524 -13.4375 34.75 C-16.14151421 33.7405711 -17.28247091 32.79160651 -19.4375 30.75 C-20.3125 28.5 -20.3125 28.5 -20.4375 26.75 C-18.625 26.0625 -18.625 26.0625 -16.4375 25.75 C-14.8125 27.125 -14.8125 27.125 -13.4375 28.75 C-10.41881566 30.25934217 -7.76452771 29.92510672 -4.4375 29.75 C-1.23752845 28.1091054 -1.23752845 28.1091054 -0.875 25.375 C-1.20554267 22.50656616 -1.20554267 22.50656616 -3.9375 20.6875 C-6.42722292 19.21495604 -9.01374399 17.99046727 -11.625 16.75 C-14.7710072 15.19804998 -16.89086621 14.03659681 -18.4375 10.75 C-19.01677796 6.86056226 -18.77098129 5.26747097 -16.625 1.9375 C-12.01827865 -2.66922135 -5.72813628 -2.08295865 0 0 Z " fill="#54575E" transform="translate(1334.4375,257.25)"/>
<path d="M0 0 C2.58460486 1.39568662 4.29972922 2.43275375 6.125 4.6875 C5.795 5.6775 5.465 6.6675 5.125 7.6875 C2.472683 7.17743904 0.7851789 6.48202677 -1.5625 5.0625 C-5.97072095 3.23267244 -9.30650964 3.4484445 -13.875 4.6875 C-17.84608701 7.05325396 -19.72825363 9.20476419 -20.875 13.6875 C-21.34981153 18.91042682 -20.77683767 22.28471181 -17.875 26.6875 C-14.19857644 29.93140314 -10.73708944 30.13692736 -6.01953125 29.98828125 C-3.12198242 29.58188551 -1.23399837 28.37249884 1.125 26.6875 C3.4375 26 3.4375 26 5.125 25.6875 C5.455 27.0075 5.785 28.3275 6.125 29.6875 C0.58401006 34.25066819 -3.95768943 35.38071736 -11.10546875 35.0390625 C-16.32185895 34.37689731 -19.32105717 32.51447773 -22.6875 28.625 C-26.90031885 22.96778611 -26.45961086 17.58755493 -25.875 10.6875 C-24.25057699 5.2851332 -20.72758172 2.37190691 -15.875 -0.3125 C-10.62388416 -2.06287195 -5.16864558 -2.10044959 0 0 Z " fill="#54575E" transform="translate(1139.875,257.3125)"/>
<path d="M0 0 C2.18536546 1.79971273 3.12949135 3.1254772 4.125 5.75 C3.135 6.41 2.145 7.07 1.125 7.75 C0.795 7.275625 0.465 6.80125 0.125 6.3125 C-2.89925686 3.94979933 -6.08436439 3.61602743 -9.875 3.75 C-12.05000647 4.75488226 -12.05000647 4.75488226 -12.875 6.75 C-12.99603381 8.75197984 -12.99603381 8.75197984 -11.875 10.75 C-8.98828367 12.36685646 -6.11412851 13.66134248 -3.06640625 14.9296875 C0.35453802 16.47232625 2.02353901 17.59221698 4.07421875 20.78125 C5.33797406 24.3517111 5.29584556 26.15940694 4.125 29.75 C1.59610016 32.76836432 -0.28018523 34.5910397 -4.265625 34.98828125 C-10.45027832 35.14881187 -14.28558909 35.09786297 -18.875 30.75 C-19.75 28.5 -19.75 28.5 -19.875 26.75 C-15.875 26.75 -15.875 26.75 -13.5625 28.25 C-10.11277159 30.17542981 -7.77117149 30.11075662 -3.875 29.75 C-2.885 29.09 -1.895 28.43 -0.875 27.75 C-0.29149495 25.29290625 -0.29149495 25.29290625 -0.875 22.75 C-4.34185286 19.70265217 -8.39128776 17.97544093 -12.53515625 16.03125 C-14.80343349 14.78918834 -16.28473055 13.77861295 -17.875 11.75 C-18.4177086 7.56339081 -18.3325921 5.47583574 -16.0625 1.875 C-11.64806537 -2.41330793 -5.40805834 -2.35132971 0 0 Z " fill="#54575E" transform="translate(1219.875,257.25)"/>
<path d="M0 0 C3.5625 1.75 3.5625 1.75 6 4 C6 5.32 6 6.64 6 8 C5.01 8.33 4.02 8.66 3 9 C2.649375 8.525625 2.29875 8.05125 1.9375 7.5625 C-0.90698045 5.26856416 -3.41056748 5.19229103 -7 5 C-7.99 5.66 -8.98 6.32 -10 7 C-9.99578506 9.39119152 -9.99578506 9.39119152 -9 12 C-6.13441089 14.03238324 -6.13441089 14.03238324 -2.625 15.625 C5.16473887 19.44214477 5.16473887 19.44214477 7 22 C7.74724147 25.09323214 7.6372073 27.89021054 7 31 C4.2373913 34.7602174 2.71824893 35.69104791 -1.82421875 36.5078125 C-7.26613417 36.82190047 -11.01633321 36.63008904 -15.25 33 C-16.19563451 32.02734736 -17.1242882 31.03605339 -18 30 C-17.01 28.515 -17.01 28.515 -16 27 C-13.50638429 28.20381448 -11.31856917 29.45428722 -9 31 C-5.4150665 31.55653201 -2.11639812 31.64277467 1.0625 29.8125 C2.17611807 27.9919375 2.17611807 27.9919375 2.02734375 25.6484375 C0.46853302 21.62990641 -2.80062026 20.55358423 -6.5 18.8125 C-13.89501213 15.20997574 -13.89501213 15.20997574 -15 13 C-15.34550163 9.98920008 -15.56701736 7.90735371 -15 5 C-10.77877512 -0.1953537 -6.54220169 -1.27112297 0 0 Z " fill="#54575E" transform="translate(1252,256)"/>
<path d="M0 0 C1.65 0 3.3 0 5 0 C5 3.63 5 7.26 5 11 C8.63 11 12.26 11 16 11 C16 12.32 16 13.64 16 15 C12.37 15 8.74 15 5 15 C5.1403124 18.95860098 5.28698899 22.91678516 5.4375 26.875 C5.47681641 28.00292969 5.51613281 29.13085938 5.55664062 30.29296875 C5.61948242 31.90751953 5.61948242 31.90751953 5.68359375 33.5546875 C5.72025146 34.54968262 5.75690918 35.54467773 5.79467773 36.56982422 C5.84959532 39.00779501 5.84959532 39.00779501 7 41 C9.97 41 12.94 41 16 41 C16 42.32 16 43.64 16 45 C14.35034831 46.64965169 12.4523645 46.24949498 10.1875 46.3125 C6.68429008 46.2774679 5.38465499 46.26269121 2.4375 44.25 C0.00146812 40.43708054 -0.1224522 37.0413956 -0.09765625 32.578125 C-0.09443359 31.55332031 -0.09121094 30.52851563 -0.08789062 29.47265625 C-0.07951172 28.40917969 -0.07113281 27.34570312 -0.0625 26.25 C-0.05798828 25.17105469 -0.05347656 24.09210938 -0.04882812 22.98046875 C-0.03705727 20.32025617 -0.02061399 17.66015635 0 15 C-1.98 15 -3.96 15 -6 15 C-6 13.68 -6 12.36 -6 11 C-4.02 11 -2.04 11 0 11 C0 7.37 0 3.74 0 0 Z " fill="#54575E" transform="translate(521,246)"/>
<path d="M0 0 C1.32 0 2.64 0 4 0 C4 3.63 4 7.26 4 11 C7.63 11 11.26 11 15 11 C15 12.32 15 13.64 15 15 C11.37 15 7.74 15 4 15 C4.11387307 18.58400513 4.24062831 22.16675485 4.375 25.75 C4.4059375 26.76578125 4.436875 27.7815625 4.46875 28.828125 C4.50742187 29.8078125 4.54609375 30.7875 4.5859375 31.796875 C4.6173584 32.69760742 4.6487793 33.59833984 4.68115234 34.52636719 C4.90938791 37.36744199 4.90938791 37.36744199 7 41 C9.97 41 12.94 41 16 41 C16.33 41.99 16.66 42.98 17 44 C12.9983959 46.66773607 9.70568852 46.71478813 5 46 C2.49839182 44.12379387 1.38054348 42.76108697 0 40 C-0.084915 38.1136088 -0.107193 36.22421485 -0.09765625 34.3359375 C-0.09443359 33.21445312 -0.09121094 32.09296875 -0.08789062 30.9375 C-0.07951172 29.761875 -0.07113281 28.58625 -0.0625 27.375 C-0.05798828 26.19164062 -0.05347656 25.00828125 -0.04882812 23.7890625 C-0.03701467 20.85932493 -0.02054258 17.92968728 0 15 C-1.98 15 -3.96 15 -6 15 C-6 13.68 -6 12.36 -6 11 C-4.02 11 -2.04 11 0 11 C0 7.37 0 3.74 0 0 Z " fill="#54575E" transform="translate(709,246)"/>
<path d="M0 0 C0.66 0.33 1.32 0.66 2 1 C1.67 2.32 1.34 3.64 1 5 C-0.36125 4.9690625 -0.36125 4.9690625 -1.75 4.9375 C-5.52934202 4.88024774 -5.52934202 4.88024774 -9 6 C-11.63386749 11.6906918 -11.44319624 17.72397263 -11.625 23.875 C-11.66367188 24.94492187 -11.70234375 26.01484375 -11.7421875 27.1171875 C-11.83602452 29.74462408 -11.92171557 32.37206171 -12 35 C-13.32 35 -14.64 35 -16 35 C-16 23.78 -16 12.56 -16 1 C-14.68 1 -13.36 1 -12 1 C-11.67 1.66 -11.34 2.32 -11 3 C-10.484375 2.505 -9.96875 2.01 -9.4375 1.5 C-6.16141202 -0.51605414 -3.78025046 -0.28001855 0 0 Z " fill="#54575E" transform="translate(1058,256)"/>
<path d="M0 0 C1.32 0 2.64 0 4 0 C4 11.22 4 22.44 4 34 C2.68 34 1.36 34 0 34 C0 22.78 0 11.56 0 0 Z " fill="#54575E" transform="translate(737,257)"/>
<path d="M0 0 C1.98 0 3.96 0 6 0 C6 1.98 6 3.96 6 6 C3.625 6.625 3.625 6.625 1 7 C0.34 6.34 -0.32 5.68 -1 5 C-0.625 2.375 -0.625 2.375 0 0 Z " fill="#54575E" transform="translate(736,245)"/>
</svg>
